<mxfile host="app.diagrams.net" modified="2021-08-06T09:11:24.861Z" agent="5.0 (Windows NT 10.0; Win64; x64) AppleWebKit/537.36 (KHTML, like Gecko) Chrome/92.0.4515.107 Safari/537.36 Edg/92.0.902.62" etag="sp1DZ5c0Z7O7_AWgBptj" version="14.9.4" type="github">
  <diagram id="vkiZ9N2-bVRqhWlQF2hl" name="Page-1">
    <mxGraphModel dx="650" dy="443" grid="1" gridSize="10" guides="1" tooltips="1" connect="1" arrows="1" fold="1" page="1" pageScale="1" pageWidth="827" pageHeight="1169" math="0" shadow="0">
      <root>
        <mxCell id="0" />
        <mxCell id="1" parent="0" />
        <mxCell id="xBriQurKszWeFzZIVkbg-6" value="" style="shape=image;verticalLabelPosition=bottom;labelBackgroundColor=#ffffff;verticalAlign=top;aspect=fixed;imageAspect=0;image=data:image/png,iVBORw0KGgoAAAANSUhEUgAABLAAAASwCAYAAADrIbPPAAAABmJLR0QA/wD/AP+gvaeTAAAgAElEQVR4nOzdedCud13f8c85WSCQPSwSNhFcalFRwIhTMAlgVHbGBSJoaUdtEUWmVqw6OK3TEaRMacc2IkJrFSFEDBgRIigScIlh0Q7DJhg2WYoRImsIJP3jPg+5zznPci+/6/pdv9/1es18BmeUc77PFQl53rmeOwkAAAAAAAAAAAAAAAAAAAAAAAAAAAAAAAAAAAAAAAAAAAAAAAAAAAAAAAAAAAAAAAAAAAAAAAAAAAAAAAAAAAAAAAAAAAAAAAAAAAAAAAAAAAAAAAAAAAAAAAAAAAAAAAAAAAAAAAAAAAAAAAAAAAAAAAAAAAAAAAAAAAAAAAAAAAAAAAAAAAAAAAAAAAAAAAAAAAAAAAAAAAAAAAAAAAAAAAAAHOe2Se5f+wgAAAAA2M3pSf48yeeTPLzyLQAAAABwlJ14dfORiVgAAAAATMax8UrEAgAAAGAy9opXIhYAAAAA1R0Ur0QsAAAAAKpZNV6JWAAAAACMbt14JWIBAAAAMJpN45WIBQAAAMDgto1XIhYAAAAAgykVr0QsAAAAAIorHa9ELAAAAACKGSpeiVgAAAAAbG3oeLWzGyJiAQAAALCmseKViAUAAADA2saOVyIWAAAAACurFa9ELAAAAAAOVDteiVgAAAAA7Gkq8UrEAgAAAOA4U4tXIhYAAAAAXzbVeCViAQAAADD5eCViAQAAAMxYK/FKxAIAAACYodbilYgFAAAAMCOtxisRCwAAAGAGWo9XIhYAAABAx3qJVyIWAAAAQId6i1ciFgAAAEBHeo1XIhYAAABAB3qPVyIWAAAAQMPmEq9ELAAAAIAGzS1eiVgAAAAADZlrvBKxAAAAABow93glYgEAAABMmHglYgEAAABMlnglYgEAAABMlnglYgEAAABMlni1esR6xIbPGAAAAIANiVciFgAAAMBkiVciFgAAAMBkiVciFgAAAMBkiVciFgAAAMBkiVciFgAAAMBkiVciFgAAAMBkiVciFgAAAMBkiVciFgAAAMBkiVciFgAAAMBkiVciFgAAAMBkiVciFgAAAMBkiVfTmIgFAAAAsAvxaloTsQAAAACWiFfTnIgFAAAAEPFq6hOxAAAAgFk7K8mbUj/SmIgFAAAAcBzxqq2JWAAAAMCsiFdtTsQCAAAAZkG8ansiFgAAANA18aqPiVgAAABAl8SrviZiAQAAAF0Rr/qciAUAAAB0QbzqeyIWAAAA0DTxah4TsQAAAIAmiVfzmogFAAAANEW8mudELAAAAKAJ4tW8J2IBAAAAkyZemYgFAAAATJZ4ZcsTsQAAAIBJEa9st4lYAAAAwCSIV7bfRCwAAACgKvHKVpmIBQAAAFQhXtk6E7EAAACAUYlXtslELAAAAGAU4pVtMxELAAAAGJR4ZSUmYgEAAACDEK+s5EQsAAAAoCjxyoaYiAUAAAAUIV7ZkBOxAAAAaMah2gewq7OSvCbJfWsfQte+kOR7k1xR+xAAAADYj4A1PeIVYxKxAAAAmDwBa1rEK2oQsQAAAJg0AWs6xCtqErEAAACYLAFrGsQrpkDEAgAAYJIErPrEK6ZExAIAAGByBKy6xCumSMQCAABgUgSsesQrpkzEAgAAYDIErDrEK1ogYgEAADAJAtb4xCtaImIBAABQnYA1LvGKFolYAAAAVCVgjUe8omUiFgAAANUIWOMQr+iBiAUAAEAVAtbwxCt6ImIBAAAwOgFrWOIVPRKxAAAAGJWANRzxip6JWAAAAIxGwBqGeMUciFgAAACMQsAqT7xiTkQsAAAABidglSVeMUciFgAAAIM6XPuAjpwd8Yp5OjnJ7yZ5RO1DAAAA6JM3sMrYiVffUvsQqMibWAAAAAxCwNqeeAW3ELEAAAAoTsDajngFxxOxAAAAKErA2px4BXsTsQAAAChGwNqMeAUHE7EAAAAoQsBan3gFqxOxAAAA2JqAtR7xCtYnYgEAALAVAWt14hVsTsQCAABgYwLWasQr2J6IBQAAwEYErIOJV1COiAUAAMDaBKz9iVdQnogFAADAWgSsvYlXMBwRCwAAgJUJWLsTr2B4IhYAAAArEbCOJ17BeEQsAAAADiRgHU28gvGJWAAAAOzrcO0DJkS8gjpOTvK7SR5Z+xAAAACmyRtYC+IV1PeFJN+X5PdrHwIAAMC0CFjiFUyJiAUAAMBx5h6wxCuYHhELAACAo8w5YIlXMF0iFgAAAF8214AlXsH0iVgAAAAkmWfAEq+gHSIWAAAAswtY4hW0R8QCAACYuTkFLPEK2iViAQAAzNhcApZ4Be0TsQAAAGZqDgFLvIJ+iFgAAAAz1HvAEq+gPyIWAADAzPQcsMQr6JeIBQAAMCO9BizxCvonYgEAAMxEjwFLvIL5ELEAAABmoLeAJV7B/IhYAAAAnespYIlXMF8iFgAAQMd6CVjiFSBiAQAAdKqHgCVeATtELAAAgA61HrDEK+BYIhYAAEBnWg5Y4hWwFxELAACgI60GLPEKOIiIBQAA0IkWA5Z4BaxKxAIAAOhAawFLvALWJWIBAAA0rqWAJV4BmxKxAAAAGtZKwBKvgG2JWAAAAI1qIWCJV0ApIhYAAECDDtc+YAWH0sadwPSdnOQlSR5S+xAAAABW10IYui7J+UmurnwH0IdTkrwyySNrHwIAAMBqWvgRwh1nJLkyyXm1DwG64McJAQAAGtFSwEpELKAsEQsAAKABrQWsRMQCyhKxAAAAJq7FgJWIWEBZIhYAAMCEtRqwEhELKEvEAgAAmKiWA1YiYgFliVgAAAAT1HrASkQsoCwRCwAAYGJ6CFiJiAWUJWIBAABMSC8BKxGxgLJELAAAgInoKWAlIhZQlogFAAAwAb0FrETEAsoSsQAAACrrMWAlIhZQlogFAABQUa8BKxGxgLJELAAAgEp6DliJiAWUJWIBAABU0HvASkQsoCwRCwAAYGRzCFiJiAWUJWIBAACMaC4BKxGxgLJELAAAgJHMKWAlIhZQlogFAAAwgrkFrETEAsoSsQAAAAY2x4CViFhAWSIWAADAgOYasBIRCyhLxAIAABjInANWImIBZYlYAAAAA5h7wEpELKAsEQsAAKAwAWtBxAJKErEAAAAKErBuIWIBJYlYAAAAhQhYRxOxgJJELAAAgAIErOOJWEBJIhYAAMCWBKzdiVhASSIWAADAFgSsvYlYQEkiFgAAwIYErP2JWEBJIhYAAMAGBKyDiVhASSIWAADAmgSs1YhYQEkiFgAAwBoErNWJWEBJIhYAAMCKBKz1iFhASSIWAADACgSs9YlYQEkiFgAAwAEErM2IWEBJIhYAAMA+BKzNiVhASSIWAADAHgSs7YhYQEkiFgAAwC4ErO2JWEBJIhYAAMAxBKwyRCygJBELAABgiYBVjogFlCRiAQAAHCFglSViASWJWAAAABGwhiBiASWJWAAAwOwJWMMQsYCSRCwAAGDWBKzhiFhASSIWAAAwWwLWsEQsoCQRCwAAmCUBa3giFlCSiAUAAMzO4doHzMD1SS5KcnXtQ4AunJzksiSPqn0IAADAWLyBNR5vYgElfSHJ9yd5Re1DAAAAhiZgjUvEAkoSsQAAgFkQsMYnYgEliVgAAED3BKw6RCygJBELAADomoBVj4gFlCRiAQAA3RKw6hKxgJJELAAAoEsCVn0iFlCSiAUAAHRHwJoGEQsoScQCAAC6ImBNh4gFlCRiAQAA3RCwpkXEAkoSsQAAgC4IWNMjYgEliVgAAEDzBKxpErGAkkQsAACgaQLWdIlYQEkiFgAA0CwBa9pELKAkEQsAAGiSgDV9IhZQkogFAAA0R8Bqg4gFlCRiAQAATRGw2iFiASWJWAAAQDMErLaIWEBJIhYAANAEAas9IhZQkogFAABMnoDVJhELKEnEAgAAJk3AapeIBZQkYgEAAJMlYLVNxAJKErEAAIBJErDaJ2IBJYlYAADA5AhYfRCxgJJELAAAYFIErH6IWEBJIhYAADAZAlZfRCygJBELAACYBAGrPyIWUJKIBQAAVCdg9UnEAkoSsQAAgKoErH6JWEBJIhYAAFCNgNU3EQsoScQCAACqELD6J2IBJYlYAADA6ASseRCxgJJELAAAYFQC1nyIWEBJIhYAADAaAWteRCygJBELAAAYhYA1PyIWUJKIBQAADE7AmicRCyhJxAIAAAYlYM2XiAWUJGIBAACDEbDmTcQCShKxAACAQQhYiFhASSIWAABQnIBFImIBZYlYAABAUQIWO0QsoCQRCwAAKEbAYpmIBZQkYgEAAEUIWBxLxAJKErEAAICtCVjsRsQCShKxAACArQhY7EXEAkoSsQAAgI0JWOxHxAJKErEAAICNCFgcRMQCShKxAACAtQlYrELEAkoSsQAAgLUIWKxKxAJKErEAAICVHa59AM24PslFSa6ufQjQhZOTvDTJo2sfAgAATJ83sFiXN7GAkr6Q5AeSvLz2IQAAwHQJWGxCxAJKErEAAIB9CVhsSsQCShKxAACAPQlYbEPEAkoSsQAAgF0JWGxLxAJKErEAAIDjCFiUIGIBJYlYAADAUQQsShGxgJJELAAA4MsELEoSsYCSRCwAACCJgEV5IhZQkogFAAAIWAxCxAJKErEAAGDmBCyGImIBJYlYAAAwYwIWQxKxgJJELAAAmCkBi6GJWEBJIhYAAMyQgMUYRCygJBELAABmRsBiLCIWUJKIBQAAMyJgMSYRCyhJxAIAgJkQsBibiAWUJGIBAMAMCFjUIGIBJYlYAADQOQGLWkQsoCQRCwAAOiZgUZOIBZQkYgEAQKcELGoTsYCSRCwAAOiQgMUUiFhASSIWAAB0RsBiKkQsoCQRCwAAOiJgMSUiFlCSiAUAAJ0QsJgaEQsoScQCAIAOCFhMkYgFlHRjku+PiAUAAM0SsJgqEQsoScQCAICGCVhMmYgFlCRiAQBAowQspk7EAkoSsQAAoEECFi0QsYCSRCwAAGiMgEUrRCygJBELAAAaImDREhELKEnEAgCARghYtEbEAkoSsQAAoAECFi0SsYCSRCwAAJg4AYtWiVhASSIWAABMmIBFy0QsoCQRCwAAJkrAonUiFlCSiAUAABMkYNEDEQsoScQCAICJEbDohYgFlCRiAQDAhAhY9ETEAkoSsQAAYCIELHojYgEliVgAADABAhY9ErGAkkQsAACoTMCiVyIWUJKIBQAAFQlY9EzEAkoSsQAAoBIBi96JWEBJIhYAAFQgYDEHIhZQkogFAAAjE7CYCxELKEnEAgCAEQlYzImIBZQkYgEAwEgELOZGxAJKErEAAGAEAhZzJGIBJYlYAAAwMAGLuRKxgJJELAAAGJCAxZyJWEBJIhYAAAxEwGLuRCygJBELAAAGIGCBiAWUJWIBAEBhAhYsiFhASSIWAAAUJGDBLUQsoCQRCwAAChGw4GgiFlCSiAUAAAUIWHA8EQsoScQCAIAtCViwOxELKEnEAgCALQhYsDcRCyhJxAIAgA0JWLA/EQsoScQCAIANCFhwMBELKEnEAgCANQlYsBoRCyhJxAIAgDUIWLA6EQsoScQCAIAVCViwHhELKEnEAgCAFQhYsD4RCyhJxAIAgAMIWLAZEQsoScQCAIB9CFiwORELKEnEAgCAPQhYsB0RCyhJxAIAgF0IWLA9EQsoScQCAIBjCFhQhogFlCRiAQDAEgELyhGxgJJELAAAOELAgrJELKAkEQsAACJgwRBELKAkEQsAgNkTsGAYIhZQkogFAMCsHa59AHTq+iQXJbm69iFAF05K8tIkj6l9CAAA1OANLBiWN7GAkm5M8gNJLq99CAAAjEnAguGJWEBJIhYAALMjYME4RCygJBELAIBZEbBgPCIWUJKIBQDAbAhYMC4RCyhJxAIAYBYELBifiAWUJGIBANA9AQvqELGAkkQsAAC6JmBBPSIWUJKIBQBAtwQsqEvEAkoSsQAA6JKABfWJWEBJIhYAAN0RsGAaRCygJBELAICuCFgwHSIWUJKIBQBANwQsmBYRCyhJxAIAoAsCFkyPiAWUJGIBANA8AQumScQCShKxAABomoAF0yViASWJWAAANEvAgmkTsYCSRCwAAJokYMH0iVhASSIWAADNEbCgDSIWUJKIBQBAUwQsaIeIBZQkYgEA0AwBC9oiYgEliVgAADRBwIL2iFhASSIWAACTJ2BBm0QsoCQRCwCASROwoF0iFlCSiAUAwGQJWNA2EQsoScQCAGCSBCxon4gFlCRiAQAwOQIW9EHEAkoSsQAAmBQBC/ohYgEliVgAAEyGgAV9EbGAkkQsAAAmQcCC/ohYQEkiFgAA1QlY0CcRCyhJxAIAoCoBC/olYgEliVgAAFQjYEHfRCygJBELAIAqBCzon4gFlCRiAQAwOgEL5kHEAkoSsQAAGJWABfMhYgEliVgAAIxGwIJ5EbGAkkQsAABGIWDB/IhYQEkiFgAAgxOwYJ5ELKAkEQsAgEEJWDBfIhZQkogFAMBgBCyYNxELKEnEAgBgEAIWIGIBJYlYAAAUJ2ABiYgFlCViAQBQlIAF7BCxgJJELAAAihGwgGUiFlCSiAUAQBECFnAsEQsoScQCAGBrAhawGxELKEnEAgBgKwIWsBcRCyhJxAIAYGMCFrAfEQsoScQCAGAjh2sfAEza9UkuSnJ17UOALpyU5NIkj619CAAAbRGwgIOIWEBJJyV5aZLH1T4EAIB2+BFCYFV+nBAo6UtJnpDkJbUPAQBg+gQsYB0iFlCSiAUAwEoELGBdIhZQkogFAMCBBCxgEyIWUJKIBQDAvgQsYFMiFlCSiAUAwJ4ELGAbIhZQkogFAMCuBCxgWyIWUJKIBQDAcQQsoAQRCyhJxAIA4CgCFlCKiAWUJGIBAPBlAhZQkogFlCRiAQCQRMACyhOxgJJELAAABCxgECIWUJKIBQAwcwIWMBQRCyhJxAIAmDEBCxiSiAWUJGIBAMyUgAUMTcQCShKxAABmSMACxnBOktcmuU/tQ4AuvDvJvZPcWPsQAADGcbj2AcAsXJfk/CRXV74DaN97kjw44hUAwKx4AwsYkx8nBLbxniQXJPlQ7UMAABiXN7CAMV2f5KJ4EwtYX+/xyl+TAQDsw18sAWMTsYB19R6vfiXJq5KcUvsQAAAAjnZGkr9McrOZ2T772yR3Sb+ek1u+1tcnObXuOQAAABxLxDKz/dZzvDqU5JIc/zW/IclpFe8CAABgFyKWme22nuPV4STPy95f+xuTnF7tOgAAAHYlYpnZ8nqPV8/Pwc/gmiRnV7oRAACAPYhYZnZz+o9XL8jqz+LNEbEAAAAmR8Qym/d6jlcnJnlx1n8mb0lyToV7AQAA2IeIZTbP9R6vLs3mz+atSW43+tUAAADsS8Qym9d6jlcnJbks2z+jtye508i3AwAAcAARy2we6zle3SrJFSn3rN6R5NxRvwIAAAAOJGKZ9b2e49Wtk7wy5Z/ZO5PcecSvAwAAgBWIWGZ9rvd49aoM9+zenX6fHQAAQLNELLO+1nO8OiXJlRn+GV6b5B4jfU0AAACsSMQy62M9x6uhfmxwr03pTaw71j4AAABgKkQss7bXc7w6LclVGf+ZfiDJvUb4+vbzkCSfTfKzle8AAACYDBHLrM31HK9OT/LG1Hu2H0zy1YN/lbvbiVc7t4hYAAAAR4hYZm2t53h1dpJrUv8ZfzTJPx/4az3WsfFqZyIWAADAESKWWRvrPV69OfWf8c4+luTeg37Ft9grXu3s6SPdAQAAMHkiltm013O8OifJW1L/GR+7jyX5xgG/7uTgeLUzEQsAAOAIEctsmus5Xt0uyVtT/xnvtX9Mcr+BvvZV49XORCwAAIAjRCyzaa3neHWnJG9P/Wd80D6R5FsLf+3rxqudiVgAAABHiFhm01jP8ercJO9I/We86j6R5LxCX/um8WpnIhYAAMARIpZZ3fUcr+6c5F2p/4zX3SeTPGDLr33beLUzEQsAAOAIEcusznqOV3dJ8u7Uf8ab7tNJzt/way8Vr3YmYgEAABwhYpmNu57j1T2SvC/1n/G2+3SSC9f82kvHq52JWAAAAEeIWGbjrOd4dc8k70/9Z1xqn8kiSq1iqHi1MxELAADgCBHLbNj1HK/uleQDqf+MS++zSR56wNc+dLzamYgFAABwhIhlNsx6jldfn+Qjqf+Mh9rnkzxyj699rHi1MxELAADgCBHLrOzek37j1b2TfDT1n/HQuyHJo4/52seOVzsTsQAAAI4QsczK7D1J7po+fUOSj6X+Mx5rNyR5zJGvvVa8ujnJTUmeetAfHAAAgLkQscy2W8/x6p8l+XDqP+Ox9/kkP5/kU5XvuCnJjx34RwkAAGAmRCyzzdZzvLp/kn9M/Wc893kTCwDY0wm1DwAY2Q1JLktyQfr9DB8o7b1Z/Gfmg7UPGcB5Sa5MclbtQ8ihJBcl+WSSqyvfAgBMjIAFzJGIBavrOV59Wxbx6szah/BlIhYAsCsBC5grEQsO1nO8Oj/Jq5OcVvkOjidiAQDHEbCAOROxYG89x6sLk1yR5La1D2FPIhYAcBQBC5g7EQuO13O8enDEq1aIWADAlwlYACIWLOs5Xj00ySuS3Kb2IaxMxAIAkghYADtELOg7Xj0iyeVJTql9CGsTsQAAAQtgiYjFnPUcrx6VxX+2b1X7EDYmYgHAzAlYAEcTsZijnuPVY5JcmuTk2oewtZ2I9YmIWAAAAEmSM5L8ZZKbzTrfe5LcNX26OMkXU/8ZW9ndlOQnAwAAQBIRy/pfz/HqCRGvep6IBQAAsETEsl7Xc7z6oYhXc5iIBQAAsETEst7Wc7z6lxGv5jQRCwAAYImIZb2s53j15CyCRu1nbONOxAIAAFgiYlnr6zlePSXi1ZwnYgEAACwRsazV9RyvnhrxykQsAACAo4hY1tp6jldPi3hlt0zEAgAAWCJiWSvrOV79fOo/X5veRCwAAIAlIpZNfT3Hq2ek/vO16U7EAgAAWCJi2VTXc7x6Zuo/X5v+RCwAAIAlIpZNbeKV2WIiFgAAwBIRy6aynuPVs1P/+Vp7E7EAAACWiFhWe73Gq0NJnpP6z9fanYgFAACwRMSyWus5Xl2S+s/X2p+IBQAAsETEsrHXa7w6nOR5qf98rZ+JWAAAAEtELBtrPcer56f+87X+JmIBAAAsEbFs6PUar05I8qLUf77W70QsAACAJSKWDbVe49WJSV6c+s/X+p+IBQAAsETEstLrOV5dmvrP1+YzEQsAGnFC7QMAZuCGJJcluSDJXSrfQvvem8X/L32w9iGFnZTFm1ffV/sQZuVQku9K8okkV1e+BQDYh4AFMA4RixJ6jVe3SvJ7SR5d+xBmScQCgAYIWADjEbHYRq/x6tZZxKuH1T6EWROxAGDiBCyAcYlYbKLXeHVKksuTfHftQyC3RKx/TPJXlW8BAI4hYAGMT8RiHT3Hq5cnuaj2IbBExAKAiRKwAOoQsVhFr/Hq1CSvSnJh7UNgFyIWAEyQgAVQj4jFfnqNV6dlEa8eWPsQ2IeIBQATI2AB1CVisZte49XpWcSrf1H7EFiBiAUAEyJgAdQnYrGs13h1dpLXJPm22ofAGkQsAJgIAQtgGkQskn7j1TlZxKv71j4ENiBiAcAECFgA0yFizVuv8ep2WcSrb6l9CGxBxAKAygQsgGkRseap13h1+ySvTXKf2odAASIWAFQkYAFMj4g1L73GqzsleV2Se9c+BAoSsQCgEgELYJpErHnoNV6dm0W8+rrah8AARCwAqEDAApguEatvf5c+49Wds4hXX1v7EBiQiAUAIxOwAKZNxOpTr/HqK5NcleSele+AMYhYADAiAQtg+kSsvuzEqw/UPqSwr8rizauvrHwHjEnEAoCRCFgAbRCx+tBrvLpnFvHq7rUPgQpELAAYgYAF0A4Rq229xqt7ZRGv7lb7EKhIxAKAgQlYAG0RsdrUa7z6+iR/msUHt8PciVgAMCABC6A9IlZbeo1X907yx0m+ovYhMCEiFgAMRMACaJOI1YZe49U3ZBGv7lj7EJggEQsABiBgAbRLxJq2XuPVNyV5bZI71D4EJkzEAoDCBCyAtolY09RrvLp/FvHqnNqHQANELAAoSMACaJ+INS29xqvzklyZ5Kzah0BDRCwAKETAAuiDiDUNvcarByR5dZIzax8CDRKxAKAAAQugHyJWXb3Gq/OziFenVb4DWrYTsa6LiAUAGxGwAPoiYtXRa7y6MMkVSW5b+xDowKEk3x0RCwA2ImAB9EfEGlev8eohSX4/4hWUJGIBwIYELIA+iVjj6DVePTSLeHWb2odAh0QsANiAgAXQLxFrWL3Gq0cmuTzJrWsfAh0TsQBgTQIWQN9ErGH0Gq8eneSlSW5V+xCYARELANYgYAH0T8Qqq9d49ZgklyY5ufYhMCMiFgAAwDHOSPKXSW62jffeJHdb98E34OIkX0z952s2192U5CkBAAAgiYi1zXqNV0+IeGU2hYlYAAAAS0Ss9ddrvPrhiFdmU5qIBQAAsETEWn29xqsnJflS6j9fMzt6IhYAAMASEevg9RqvnpzFN8m1n6+Z7T4RCwAAYImItfd6jVc/EfHKrIWJWAAAAEtErOPXa7x6asQrs5YmYgEAACwRsW5Zr/HqaRGvzFqciAUAALBExOo3Xv1C6j9bM9t8IhYAAMCSOUesXuPVM1L/2ZrZ9hOxAAAAlswxYvUar56Z+s/WzMpNxAIAAFgyp4jVa7x6Vuo/WzMrPxELAABgyRwiVq/x6tmp/2zNbLiJWAAAAEt6jlg9xqtDSZ6T+s/WzIafiAUAALCkx4jVa7y6JPWfrZmNNxELAABgSU8Rq8d4dTjJr6f+szWz8SdiAQAALOkhYvUar34j9Z+tmdXbTUl+PAAAACRpO2L9XfqLVycmeVHqP1szqz8RCwAAYEmLEavXePXi1H+2ZjadiVgAAABLWopYvcarS1P/2ZrZ9CZiAQAALGkhYvUYr05KclnqP1szm+5ELAC6c0LtAwBo1g1ZhJQLktyl8u/Q5IMAACAASURBVC27uTbJ+Uk+UPmOkm6V5PeSPLr2IcCkHUry3Un+Ick1lW8BgCIELAC2MdWI1WO8unWSy5N8T+1DgCaIWAB05VDtAwDowhlJrkxyXu1D0me8OjmLz7zy5hWwrpuy+JsMV9U+BAC2cbj2AQB04fokFyW5uvIdPcarU5P8UcQrYDOXJHlD7SMAAACmpOYHu/f4ge2nJnl96n8gtJm1uf8RP3EBAACwqxoRq8d4dVoWb03U/gbYzNqceAUAAHCAMSNWj/Hq9CRvTP1vgM2szYlXAAAAKxojYvUYr85O8qbU/wbYzNqceAUAALCmISNWj/HqnCRvTv1vgM2szYlXAAAAGxoiYvUYr26X5K2p/w2wmbU58QoAAGBLJSNWj/Hq9kn+OvW/ATazNideAQAAFFIiYvUYr+6U5O2p/w2wmbU58QoAAKCwbSJWj/Hq3CTvTP1vgM2szYlXAAAAA9kkYvUYr+6c5F2p/w2wmbU58QoAAGBg60SsHuPVPZJcm/rfAJtZmxOvAAAARrJKxOoxXn1Vkvel/jfAZtbmxCsAAICR7RexeoxX90zy/tT/BtjM2px4BQAAUMluEavHeHWvJB9I/W+AzazNiVcAAACVLUesHuPV1yf5SOp/A2xmbU68AgAAmIhzkrwyydfUPqSwr443r8xs8/1WkhMCADN3Yu0DAOCI65I8rPYRhX1DktcmuUPtQ4Bm3SHJyUk+V/sQAKjpcO0DAKBT90vy+ohXwHa+M8nLk5xS+xAAqEnAAoDyvjXJa5KcVfsQoAsiFgCzJ2ABQFnnJbkyyZm1DwG6ImIBMGsCFgCU84CIV8BwRCwAZkvAAoAyzs/ixwbPqHwH0DcRC4BZErAAYHsXJvmDJLetfQgwCyIWALMjYAHAdh6S5IqIV8C4RCwAZuVQ7QMAoGG+gQRqe02SRyX5XO1DAGBI3sACgM08Mos3r8QroKaHJnlF/LkIgM4JWACwvkcnuSzJybUPAYiIBcAMCFgAsJ7HJrk04hUwLSIWAF0TsABgdT+Y5KURr4BpErEA6JaABQCreWKS30xyQu1DAPYhYgHQJQELAA72w0n+V8QroA0iFgDdEbAAYH9PSvLCiFdAW0QsALoiYAHA3p6c5AXx35dAm0QsALrhL8gBYHc/keRXkxyqfQjAFkQsALogYAHA8Z6a5L9FvAL6IGIB0DwBCwCO9nNJnhvxCuiLiAVA0/zFOQDc4heS/FLtIwAGdFWS70nymdqHAMA6vIEFAAu/GPEK6N+DkvxhktvWPgQA1uENLABInpnk6bWPABiRN7EAaIqABcDcPSvJz9Q+AqACEQuAZghYAMzZs5P8dO0jACq6KsnDkny69iEAsB8BC4A5OpTkOUmeVvsQgAkQsQCYPAELgLk5lOSSJD9W+xCACRGxAJg0AQuAOTmc5NeS/EjtQwAmSMQCYLIELADm4nCSX0/yr2sfAjBhIhYAkyRgATAHJyb5zSQX1z4EoAFvyOKfTihiATAZAhYAvTsxyW8leVztQwAaImIBMCkCFgA9OynJbyf5/tqHADRIxAJgMgQsAHp1UpLfSfK9tQ8BaJiIBcAkCFgA9OhWSV6WxQcRA7AdEQuA6k6ofQAAFLbz5tWjah8C0Im7J7lNkitrHwLAfHkDC4CenJLk8iQX1T4EoCN/keS7kvxT7UMAmC8BC4BenJrkD5J8R+1DADryp0kenuQzle8AYOYELAB6cGqSVyZ5UO1DADryuiSPiHgFwAT4DCwAWndaklcleWDtQwA68sdZxKvP1j4EABJvYAHQttOziFffXvsQgI68Not/EIZ4BcBkCFgAtOrsJH+U5L61DwHoyGuyiFefq30IACw7XPsAANjAOVl8kyVeAZRzRRY/NiheATA53sACoDW3yyJe3af2IQAd+f0k35fkC7UPAYDdeAMLgJbcPovPZhGvAMp5ecQrACbOG1gAtOJOSf4kydfVPgSgI5cn+YEkN9Y+BAD24w0sAFpwbpLXRbwCKOllEa8AaISABUALnpvka2sfAdCRVyS5OOIVAI3wI4QAtODMLD64/X61DwHowG8leVKSL9U+BABW5Q0sAFrwySQPTfKm2ocANO7/RLwCoEECFgCtELEAtvO/k/yriFcANEjAAqAlIhbAZi6JeAVAwwQsAFojYgGs538m+fEkN9c+BAA2JWAB0CIRC2A1v5rkKRGvAGicgAVAq0QsgP399yQ/GfEKgA4IWAC0TMQC2N1zk/xUxCsAOiFgAdA6EQvgaL+c5GkRrwDoiIAFQA9ELICF/5zk52ofAQClCVgA9ELEAubul5L8Qu0jAGAIAhYAPRGxgLn6j0meUfsIABjKodoHAMAAzkzymiT3q30IwAh+Nsmzah8BAEMSsAD6cEqS047szCP/euLS//5TSf5fko8n+fTo19UhYgFz8PQkv1L7CAAYmoAF0J6vTnJhkm8+8j9/TZK7rPHv/3ySjyV5d5J3JXnnkX/9v1lErp6IWEDPfibJs2sfAQBjELAApu9wkguSXJzF5zvddcDf6++TvPXIrklyVZLrB/z9xiBiAT366STPqX0EAIxFwAKYrjsk+akkT8x6b1iV9KUkb0nyuiR/kuQNST5b6ZZtiFhAL25O8u+S/NfahwDAmAQsgOk5J8m/T/KUJLetfMuxPpfk9UlemeQPk/xd3XPWImIBrbs5yZOT/FrtQwBgbAIWwLQ8Mclzk5xd+5AVvTPJZUlekuTtlW9ZhYgFtOqmJP82ya/XPgQAahCwAKbhjklekORhtQ/Zwt8keXEWMev9lW/Zj4gFtOamJP8myfNrHwIAtQhYAPV9Y5JXJTm39iEFvTmLtwR+J8mnK9+yGxELaMVNSX40i7/JAQCzJWAB1HXfLD5L6g61DxnIdUl+O8lvJHlb5VuOJWIBU3dTkh9J8sLahwBAbQIWQD3flOSqJKfXPmQkb0nyvCyC1lT+SYYiFjBVX8zicxFfUvsQAJgCAQugjrsn+fP09WODq7o+yW9m8WH111a+JRGxgOn5YpInJLm09iEAMBUCFsD4TkjyhiQPqH1IZTcmeWmSZ2fxAfA1iVjAVHwxyQ9m8edHAACAav5DkpvtqL0xySNS92+snJnkmtR/FmY2330hyfcGADiON7AAxvU1Sf46ySm1D5moNyV5ZpLLs/jw4rF5Ewuo5cYkj0/ystqHAMAUHa59AMDMPCvi1X7ul+R3k7wni39s/Ikj//6fTPLQLEIawFhuSPKYiFcAsCdvYAGM5/5J/qr2EY25Nos3sl6YxefCjMWbWMBYPp/ksUleVfsQAJgyb2ABjOdnax/QoHskeV4Wb0Q9YsTf15tYwBg+n8WbV+IVABzAG1gA47hLkvfH3zjY1tuS/Kckl430+3kTCxjK57KIV1fWPgQAWuAbKYBxPC7+nFvCvbP4R8v/WZIHjfD7eRMLGMLnkjwq4hUArMw3UwDjeHztAzrz7Ulel+RFSe428O8lYgElfTrJd2XxdicAsCI/QggwvDsn+VDtIzp2Y5JLkvxiFrFpKH6cENjWp5I8LMkbah8CAK3xBhbA8M6vfUDnTkryk0nem+SpSU4c6PfxJhawjU8l+Z6IVwCwEQELYHjfUfuAmTg7yXOT/EWSBwz0e4hYwCb+KYsfG3xj7UMAoFUCFsDwzqt9wMzcL4tvEp+f5JwBfn0RC1jHJ5I8OMmf1z5kC4eS/JckF9Q+BAAAGMbhJJ9NcrNV2Sez+LHCEw76A7WBM5NcM4Gv0cymu+uS3DdtO5zkBVl8PTckeXjdcwAAgCHcLfW/gbLkz5J80wF/rDYhYpnZXvuHJN+cth1O8sIc/XWJWAAA0KEHp/43UbbYjUl+Jclt9v0jtj4Ry8yO3ceT3Cdt2y1e7UzEAgCAzlyc+t9I2dH7+ySP3e8P2gZELDPb2cczzBufY9ovXu1MxAJgVD7EHWBYZ9U+gOOcm+RlSa5IcudCv6YPdgeS5KNJHpTkb2ofsoXDSX4jyZMO+L87OYs/l4pYAIxCwAIY1hm1D2BPD0/y1izekitBxIJ5+0gW/5S+d9Q+ZAurxqsdIhYAoxGwAIZ1eu0D2Nftk7woycuTfEWBX0/Egnn6cBbx6p21D9nCuvFqh4gFwCgELABIHpXkXUl+NMmhLX8tEQvm5e+ziFfvqn3IFjaNVztELAAGJ2ABDOuLtQ9gZacneV6SVye525a/logF8/ChLOLVu2sfsoVt49UOEQuAQQlYAMP6Uu0DWNt3ZvHZWI/f8tcRsaBv1yZ5YJK/rX3IFkrFqx0iFgCDEbAAhnVj7QPYyNlJfieLz8fa5oP4RSzo07VZvHn1vsp3bKN0vNohYgEwCAELYFjX1T6ArVycxefaPGyLX0PEgr68N8n5Sd5f+Y5tDBWvdohYABQnYAEM6x9qH8DW7pjkiiw+H+s2G/4aIhb04b1ZvHn1gdqHbGHoeLVDxAIAgIZckORm62ZvSvK12dyZSa6ZwNdhZuvvb5PcNW07nOSFGfe53RARC4ACvIEFMCxvYPXlvllErB/a8N/vTSxo09uz+MD2D9Y+ZAtjvXl1LG9iAQBAA05NclPqvzlg5fd7Sc7KZryJZdbO3pbFjxK3rMabV8fOm1gAADBxH079b8BsmL3//7N333F+VXX+x1+TTEgCgaEJgnQRxIYUBaUICALLimBQwV7AjmIv+1vL7rrqursuKqu4IvYCgggoRHABBelFkV4EBMFQk0BISDL8/jjJEiAz8535nns/997zej4e7weWMPPJ/X4zufOec84FXszEWGIZ0/xcCaxDuzWhvFoWSyxJ0oS5hVCSqndj9ACqzEbAb4D3AgPj/HfdTig125XAS4HZ0YP0IWrb4EjcTihJmjALLEmq3vXRA6hS04Cvkp5UON4thZZYUjP9EcurqlhiSZImxAJLkqp3dfQAqsV+wHnAVuP89yyxpGa5BNgNuDt4jn40tbxaxhJLkiRJaqBdiT93xNSXh4G3MX6eiWVMfC4k/VlssyadeTVWPBNLkiRJapDVgCXEf6Ng6s3RpFUG42GJZUxcLsDyKiKWWJIkSVKD3ED8Nwmm/pwDPJXxscQypv6cDwzRbm0sr5bFEkuSNCbPwJKkeni+UZl2Jb32O4zj3/FMLKle5wN7A3OiB+lD08+8GotnYkmSxmSBJUn1ODt6AIV5GnAu8LFx/DuWWFI9zib9WZsbPEc/2l5eLWOJJUmSJDXAFsRv0TDx+QEwnd65ndCY6vIbYBXarc3bBkeK2wklSZKkYLcT/42Bic9lwMb0zhLLmPw5E1iZdutiebUslliSpCdxC6Ek1ed30QOoEbYBzgO27/HXu51QyutMYH9gfvQgfejKtsGRuJ1QkvQkFliSVJ8zowdQYzwN+C3wmh5/vSWWlMeppFLE8qr5LLEkSZKkIOsAS4jfmmGalSOByfTG7YTGTDwnA1Npty5vGxwpbieUJEmSApxP/DcDpnk5DRiiN5ZYxow/vyCt6GmzEsurZbHEkiS5hVCSanZq9ABqpH2Ac4FNe/i1bieUxuck4FXAI9GD9KGUbYMjcTuhJEmSVLNtiP9Jtmlu/gpsS29ciWXM2DkRmEK7lbzy6olxJZYkSZJUkwHgZuK/CTDNzTxgX3pjiWXMyPkZllddjCWWJBXKLYSSVK9HgR9HD6FGmwGcAhzew691O6G0Yj8gPeVzUfQgfSh92+BI3E4oSZIk1eR5xP8E27QjR9LbD5tciWXMY/kevT/Zs6lceTV2XIklSZIk1eAq4m/+TTtyAjCdsVliGQPfwfKqpFhiSVJB3EIoSTFOiB5ArfFK4GRgtTF+ndsJVbrvAG8FlgTP0Q+3DY6P2wklSZKkim0BDBP/02vTnlwGPJWxuRLLlJj/Jj0ko81ceTXxuBJLkiRJqtDZxN/0m3blDtIZamOxxDIl5Sgsr4wlliRJklSZNxF/w2/al/uAnRmbJZYpIV/F8so8FkssSZIkqQKrAHOIv+E37csCYCZjs8QyXc6RWF6ZJ8cSS5IkSarAMcTf7Jt2ZiHwWsZmiWW6mC9jeWVGjiWWJEmSlNmOxN/om/ZmCfBuxmaJZbqUz9F+llfVxxJLkiRJyuz3xN/om3bnC4zNEst0If9C+00CjiX+WpYQSyxJkiQpo0OIv8k37c/XSN8Yj8YSy7Q5/0T7WV7VH0ssSZIkKZMpwO3E3+Sb9uf7wCCjs8QybcxnaD/Lq7hYYkmSJEmZfIr4G3zTjfwCmMboLLFMm/Ix2s/yKj6WWJIkSVIG6wELiL/BN93Iz4GVGJ0llmlDPkr7WV41J5ZYkiRJUgZfJ/7m3nQns4DpjM4SyzQ5H6H9LK+aF0ssSZIkqU+bAYuJv7k33cmvscQy7cyHaD/Lq+bGEkuSJEnq03HE39ibbuUcYAajs8QyTckw8AHaz/Kq+bHEkiRJkvqwPfE39aZ7+S2WWKb5GQbeSftZXrUnlliSJElSH84m/qbedC+eiWWanCXA22k/y6v2xRJLkiRJmqCXEn9Db7qZXwPTGJ0llqk7S4DDaD/Lq/bGEkuSJEmaoLOIv6E33czvcDuhaU6WAG+j/Syv2h9LLEmSJGkCdiP+Zt50N2fgdkITnyXAW2k/y6vuxBJLkiRJmoCzib+ZN93Nr7HEMnFZBBxM+1ledS+WWJIkSdI47U78jbzpdmbhmVim/iwCXkP7WV51N5ZYkiRJ0jj9lvgbedPtnAhMYXSWWCZXFgGvpv0sr7ofSyxJkiRpHF4ADBN/I2+6nZ8Dg4zOEsv0m0eAg2g/y6tyYoklSZIkjcPxxN/Em+7ne6RvzEdjiWUmmkeAmbSf5VV5scSSJEmSerQF6Zu/6Jt40/18lbFZYpnxZgGwH+1neVVuLLEkqQEmRw8gSRrTvcAGwHbRg6jzXkj6Zu2cUX7NAtKqwD2B9esYSq22AHgl8KvoQfo0CTgGeHPwHIoxmbT99Qrg+uBZJEmSpEbbEJhP/E+hTfczDLydsbkSy4yVh4F9aD9XXpllcSWWJAVyBZYktcNcYDqwa/Qg6rwB0nav64E/jfLrXIml0TwMHAjMih6kT6680vJciSVJkiT1YDpwC/E/gTZlZDFp69dYXIllnpj5wF60nyuvzEhxJZYkSZI0htcSf+Nuysl8YBfGZolllmUe3VgpanllxoolliRJkjSKAeB3xN+4m3LyAPB8xmaJZebSW+HZdJZXptdYYkmSJEmj2BZYQvyNuykndwCbMjZLrHIzF9iJ9rO8MuONJZYkSZI0ih8Sf9NuyspVwJqMzRKrvMwBXkz7WV6ZicYSS5IkSRrB+qQVD9E37aas/B5YmbFZYpWT+4DtaD/LK9NvLLEkSZKkEbyP+Bt2U15OAwYZmyVW93MvllfGLB9LLEmSJGkFJgOXE3/DbsrLt+iNJVZ3cw+wDe1neWVyxxJLkiRJWoGdgGHib9hNefkYvbHE6l7uprcnUzad5ZWpKpZYkiRJ0gp8l/ibdVNehoHX0xtLrO7kbmBr2s/yylQdSyxJymwgegBJUt/WA64mlQRSnR4Gdgcu7OHXrg6cAWxf6USq0l3AHsA10YP0aRJwDPDm4DnUfY8AM4FToweRpC6YFD2AJKlvdwIfiR5CRZoOnAxs1sOvfQDYC7ik0olUlTtJZaXlldS7lYATcCWWJEmS9DiziN8yYcrMTcDa9MbthO3LHcCWK3oxW8ZtgyYqbieUJEmSlrMxMI/4G3VTZs4hrTbohSVWe3I7sMWKX8ZWsbwy0bHEkqQ+TY4eQJKUzRzSeRsvix5ERdoYWJ+0pXAsC4DjgT2X/jtqpttJZ17dED1In9w2qCaYDBwEXAFcHzyLJEmSFG4QuJz4nzSbcvN2eudKrObmZmCTEV+59nDllWlaXIklSZIkLbUV6elw0TfppswsBvajd5ZYzcvNpBV1bWd5ZZoaSyxJkiRpqU8Rf4Nuys29wOb0zhKrObkR2Gj0l6sVLK9M02OJJUmSJJHO2riA+Bt0U26uIxVTvbLEis8NwIZjvVAtYHll2hJLLEmSJAl4JjCf+Bt0U25OJpUJvbLEissNwAZjv0SNZ3ll2hZLLEnqkU8hlKTuuof0VMK9ogdRsbYEBoCze/z1Pp0wxtXAbsBfg+fo12Tgh8DroweRxsGnE0qSJEmkpxJeSPxPmE25WQL8HePjSqz68idg3d5elkabDPyY+OtpzETjSixJGsNA9ACSpMptSvrJ7mrRg6hYDwI7AleN499ZHTgD2L6SiQSpvHopMDt6kD5NBn4AHBw9iNSnR4CZwKnRg0hSE43nXApJUjv9Gfho9BAq2gzguKX/7NUDpO2vl1Qyka7E8kpqmpWAE3AlliRJkgr3U+K3SJiy8wvGv/rb7YT58wfgKeN5ERrKbYOmq3E7oSRJkoq2BnAb8TfmpuxMZDWgJVa+XEz6WtB2llem67HEkiRJUtH2AoaJvzE35WYxE3sypiVW/7lw6XVsO8srU0ossSRJklS0o4i/KTdl53Ym9uQ7S6yJ5wIsr4xpYyyxJEmSVKwppG9mo2/KTdk5n3Rg8XhZYk3sWg9N4Fo3jeWVKTWWWJIkSSrWM4EHib8pN2XnX5kYS6ze83tgtYld5kaxvDKlxxJLkiRJxXo18TfkpuwMA/szMZZYY+csYJUJXt8msbwyJsUSS5IkScX6FvE35KbszAbWZ2IssUbOb7C8MqaLscSSJElSkaYBfyD+htyUnbNJRcVEWGI9OWcCK0/wejaJ5ZUxK44lliRJkoq0NTCf+BtyU3Y+zMRZYj2WM7C8MqaEWGJJkiSpSIcQfzNuys4iYCcmzhILTgGm9nENm8LyypjeYoklSZKkIn2b+JtxU3ZuBFZl4kousU7G8sqYEmOJJUmSpOJMpdxv/k1z8kP6U2KJdRKwUp/XrQksr4yZWCyxJEmSVJyNgHuIvxk3Zed19KekEuvnWF4ZYyyxJEmSVKD9gCXE34ybcvMAsAn9KaHEOgGY0ud1agLLK2PyxBJLkiRJxfk34m/ETdn5DTCJ/nS5xPohqfhpO8srY/LGEkuSJElFmUR6oln0jbgpO/9A/7pYYn0fyytjzMixxJIkSVJR1gRuIv5G3JSbhcBz6V+XSqzv0Y3yahDLK2OqjCWWJEmSirIl6Tyi6BtxU27+QJ5DyrtQYn0HyytjTO+xxJIkSVJR9sdD3U1sPkMebS6xjqX/M8GawPLKmHpjiSVJkqSifJb4m3BTbhYB25FHG0us/wYGMv3+I1leGRMTSyxJkiQVYzLwS+Jvwk25uYhUgOTQphLra1heGWP6jyWWJEmSirEacCXxN+Gm3HyCfNpQYn0VyytjTL5YYkmSJKkY6wO3E38TbsrMQuDZ5NPkEutILK+MMfljiSVJkqRibAc8RPxNuCkzF5D3SXxNLLG+jOWVMaa6WGJJkiSpGAcBw8TfhJsyczh5NanE+lzm31sUyytjmh1LLEmSJBXDJxOaqDwIbEpeTSix/iXz7ymK5ZUx7YglliRJkoowCTiB+BtwU2ZOJL/IEuufKvj9RLC8MqZdscSSJElSEVYFFhB/A27KzCvJL6LE+kwFv48IllfGtDOWWJIkSeq8mcTfeJtycyepcMqtzhLrYxXMH8Hyyph2xxJLkiRJnXY28Tfdpuz8F9Woo8T6aEWz183yyphuxBJLkiRJnbQ18TfbxiwGtqEaVZZYH65o5rpZXhnTrVhiSWqsSdEDSJJa6/DoASRgMnA01dzTPADsBVyS+eN+GPj3zB8zwiDwfeDg6EEkZbMS6QEtlliSJEnqhLWA+cT/pNiYZXkj1cm1EmsY+ECFc9bJlVfGdDuuxJIkSVInfJz4m2tjls/fgCGq02+JNQy8s8L56mR5ZUwZscSSJElSqw0CtxJ/Y23ME/MfVGuiJdYS4O0Vz1YXyytjyoolliRJklprJvE31MasKAuBLajWeEusJcBhFc9UF8srY8qMJZYkSZJa6Wzib6aNGSknUr1eS6wlwNtqmKcOllfGlB1LLEmSJLXK1sTfRBszWoaBnajeWCXWEuAtNcxRB8srY8yjWGJJClbFI6clSd11ePQA0hgGgK9R/T3OA8BewCUr+P8WA68Djq14hjoMAt8HDo4eRFK4lYATsMSSJElSw60FzCf+J8DG9JK6CpcnrsRaBLymps9dtUHgJ8S/lsaYZsWVWJJCuAJLktSrw4Dp0UNIPfoCMLWGz7P8SqxlK69+WsPnrdog8AO6U8ZJyseVWJJCTI4eQJLUCsu2EQ1FDyL1aHXgXuCCGj7XAuAXwIWkb+razvJK0lgmAwcBVwDXB88iqRAD0QNIklphJvCz6CGkcboH2ByYEz1Ii1heSRqPR0j3CKdGDyKp+1yBJUnqxdeATaOHkMZpZeBh4JzoQVrC8krSeLkSS1JtXIElSRrL1qQbU6mN5gFPB+6OHqThLK8k9cOVWJIq5yHukqSxHB49gNSHVYFPRA/RcJZXkvrlwe6SKucKLEnSaNYC/oJPH1S7LSCdhXVH9CAN9Ungc9FDSOqE+cB+wNnBc0jqIFdgSZJGcxiWV2q/acBHoodosKOo52mNkrpvZWAWrsSSVAFXYEmSRjII3ARsFD2IlIGrsEY3BJwO7Bg9iKRO8EwsSdm5AkuSNJJXYHml7pgGfCh6iAabA+yDK7Ek5eGZWJKycwWWJGkkZwMviR5CymgBsClwV/QgDeZKLEk5uRJLUjauwJIkrcjWWF6pe6YB744eouFciSUpJ1diScrGAkuStCKHRw8gVeQ9wIzoIRrOEktSTpZYkrKwwJIkPdFawGujh5Aqsibw1ughWsASS1JOlliS+maBJUl6osOA6dFDSBX6AOkpmxqdJZaknCyxJPXFAkuStLxB4F3RQ0gV24T0lE2NzRJLUk6WWJImzAJLkrS8A4CNooeQavCB6AFaxBJLUk6WWJImxAJLkrQ8D29XKXYCto8eokUssSTlZIkladwssCRJy2wN7Bo9kvZfDQAAIABJREFUhFSj90QP0DKWWJJyssSSNC4WWJKkZVx9pdIcAqwTPUTLWGJJyskSS1LPLLAkSQBrAa+NHkKq2VTgTdFDtJAllqScLLEk9cQCS5IEcBgwPXoIKcA7gYHoIVrIEktSTpZYksbkDZskaRC4CZ8+qHLtBpwTPURLDQGnAztGDyKpEx4BZgKnRg8iqXlcgSVJOgDLK5XtLdEDtJgrsSTl5EosSSNyBZYk6Rx8+qDK9hCwPjA3epAWcyWWpJxciSXpSVyBJUll2xrLK2kV0jdKmjhXYknKyZVYkp7EAkuSynZ49AAVeAj4CvAJYFHwLGqP10UP0AGWWJJyssSS9DhuIZSkcq0N3EZ3nj74Z+BI4Fge2wr2IuAXwFOihlJrDJPOgrsjepAOcDuhpJzcTigJcAWWJJXsUNpfXj1KuqHdC9icVGAtf47R+aQS67r6R1PLTAJeFT1ER7gSS1JOrsSSBLgCS5JKNQjcRHufPvgQcAxwFHB9D79+TeAkYJcqh1LrXUAqPJWHK7Ek5eRKLKlwFliSVKaDgOOjh5iAFW0T7NUqwI+Bl+ceSp3xKLAJaWut8rDEkpSTJZZUMLcQSlKZ2nR4+1jbBHv1EHAg6YB3aUUGsODMze2EknJyO6EkSVJBtiaVQk3Pg6SyassKrsFbgIUN+D2a5mUWqsIQ6Uy66NfXGNONLMQSS5IkqfO+RfyN52j5M/B+0je8VdoJmB38ezXNy0JgVVQFSyxjTM5YYkmSJHXY2sB84m86n5hh4AzS9q06t7c/Hbg64+/DdCOvRFWxxDLG5IwlllQQz8CSpLIcCkyPHmI5D5HOpNqKdMbVKaQyqy43AbsC59b4OdV8e0cP0GGeiSUpJ8/EkgriUwglqRyDpMJmo+hBgFuA/wK+Q/qGNtpU4Ouks7GkG4FnRA/RcT6dUFJOPp1QkiSpQw4idpl/1DbB8Xg9zdxiaerPxqhqbic0xuSM2wmljmvqNxCSpPwOD/q884ndJjgePwB2Bm6NHkThXhI9QAHcTigpJ7cTSh1ngSVJZdiOdNZTnW4BjgDWJz1V8LqaP/9EXQZsD5wVPYhCWWDVwxJLUk6WWFKHWWBJUhneVdPneRQ4E9if9IS/I2nGGVfjdQ+wL/Dt6EEU5kXRAxTEEktSTpZYUkd5iLskdd/awG1U+/TB+cC3SAehX1vh54nwDlIRNzV6ENVqmHRG04PRgxTEg90l5eTB7lLHuAJLkrrvUKorr27l8dsEu1ZeARwNPB+4OnoQ1WoSsG30EIVxJZaknFyJJXWMBZYkddsg+bcPLr9NcDPau01wPK4lrQr5afQgqtV20QMUyBJLUk6WWFKHWGBJUrcdAGyU6WPNB75JWpXS9KcJVmEecAjwSWBJ8Cyqx/OjByiUJZaknCyxJEmSWuAc0oqpfnILaXvgUL2jN9puwJ30f21Ns3MhijQEnE/8+8AY040sxBJLkiSpkbajvxu9M4CX42rdkQwBxxF/Q26qy/0omiWWMSZnLLEkSZIa6FuM/8buIR47tFy9eSNpe2X0TbmpJmujaJZYxpicscSSJElqkLUZX6lyC2mb4OoBs3bBNsB1xN+Um/zZETWBJZYxJmcssaQWcluIJHXTYcD0Hn7dE58m+ECVQ3XY5cAOwM+iB1F2G0QPIMCD3SXl5cHuUgtZYElS9wwC7xrl/y/9aYJVeQB4Fak8fCh4FuXzlOgB9H8ssSTlZIkltYwFliR1zwHAhiv4328DjgCeBryDtGpI+X0LeBbpCZBqPwusZrHEkpSTJZbUIhZYktQ9hz/hvy/bJrgpbhOsy23AHqTC8JHgWdQfD3FvHkssSTmtRDoCwBJLkiSpRtuRDiedT3qa4Dax4wjYCbiZ+ANrzcTy3Se/pGoID3Y3xuTMAiyxpEZzBZYkdcvfAx8HNsZtgk1xHvB84NvRg2hCBqMH0IhciSUpp6m4EktqtIHoASRJWU3CA9mbbGfgWGDz6EHUs58CB0cPoVENAacDO0YPIqkTFgIHAadGDyLp8VyBJUndYnnVbOeStnl+k7RdQc03OXoAjcmVWJJyciWW1FAWWJIk1WsuaXvnQcDs4Fk0tiXRA6gnlliScrLEkhrIAkuSpBgnAs8BfhA9iEblUzvbwxJLUk6WWFLDWGBJaounA+8FfgnsFTyLlMvdwBuAXYBrgmfRit0fPYDGxRJLUk6WWFKDWGBJaqrpwL7AV4DrgRuBrwJ/B+wfOJdUhXOBFwD/iVvWmsYVWO1jiSUpJ0ssSSEGgJWih1ArrBM9QKG2AN4PnAbMJx1yvaLcGDWgVIPtgcsY+f1v6s3rRn+51GBDwPnEv4eMMd3IAiyxpFAD0QNUZDqw5dI8c2mW/ffPAF8Km0xNMgXYDHgWj71Xlv3nacAqwOKw6cqwCrA76Sfl+5Jej15tSVqZJXXRAGlr4ZewUI+2PXBp9BCasCHgdGDH6EEkdcJC0kNYTo0eRCpR2wus9XisnFq+qNqYkX9vxwCH1jKdmmIGj70/tlrun5uTSqyRbAHcUPl05dmKVFbtA+xKWpY9EUcAR+YaSmqo1YHPAu8BJgfPUqJHSQXIvOhB1BdLLEk5WWJJQdpQYK1EKhpWVFQNTeDjnQfsnG06Ncm6PLaCaqul2RLYaIIfb3/glDyjFW0G8FJSYbUPsEmmj3smHuaucuwAHAVsFz1IYf4KPC16CGVhiSUpJ0ssKUCTCqz1SCtenrH0n8uKqk2BwYyf515g7YwfT/WaTio0n7H0n1vyWGm1RubP9VHcbjoRA8DzgJcBe5OerlbF2XOLSKWlTwhTKSYBbwP+mfTeV/WOA14TPYSyscSSlJMlllSzOgusSaSVF5sBzyaVDpstzYaMvpUrt3VIjy5XMw0Bz+Xx75FlyV1SjeZY4K01fr42exbwcmBP0jcGM2r6vG8BvlPT55KaYmXgcOAfgFWDZ+m6dwHfiB5CWVliScrJEkuqURUF1hMLh2Vl1dOY+Fk3ue0K/C56iMI1paQazfnAi6OHaKg1SGXVsozn8PWcfgEcEPS5pWibAf8GzIwepMOeDVwdPYSys8SSlJMlllSTfgqsZVv8nrFctgDWzzBX1Q4lHeau6j2FdHbLsvfIsu1/G5FW5TXZfcBa0UM0xCRgG9KZU3sBO9GMQvoh0nvs4ehBpEC7krY7vzB6kI65lnSWorrJEktSTpZYUsNdS3o6TxvjuUb1eQXxr3c/Kfnx9RuStlD+mLTlNvq1GCmuPpGSPYEriP8z2ZV8bHyXXy00RFptHf1eM8Z0IwuAv0dSZfpZAXNttinqt2X0AAW5JnqAPpX00/cZpL90v0J63W4jrVQ8mGY/+OCQ6AGkhjgT2BZ4NfDn4Fnabgnw/eghVLk5pKfjXhA9iKROmAr8DEssqZE+T3zLPdHcXMH10IpNAR4h/jWfaN6e/5I0zgeAc2jv6/QwsFr2qyK12wzg/5G2Qkf/GW1jThz/JVeLuRLLGJMzrsSSKtLPCqzrsk1Rv03wG966LAJujB6iD8+LHqAGu5DO0KnzSaA5TcNthNITPQj8C2kr8BHAnbHjtMowqfxTOVyJJSknV2JJFSl1C+EA6el3qkebtxFuEz1ADWZFD5DBa6IHkBrqIeBI0nbozwAPhE7TDifikwdLZIklKSdLLKkC/RRY12ebIoYFVn3aXHZuTfOfltivX5KWO7fZXsDG0UNIDTYH+CxpBfLHcUXWSOYBH4keQmEssSTlZIklZdbPN+b3AX/LNUiA50YPUJA2l52rAJtFD1Gx24E/RQ/Rp0nAG6OHkFpgDvBFYANgf+Di2HEa5wPALdFDKJQllqScLLGkjPpdWdLmlTXPiR6gIG3eQghuI2yLN5C2B0sa2zBwCrAjcCDw29hxGmEW8O3oIdQIlliScrLEkjLpt8Bq80HursCqz7W0e4va1tED1OC06AEyeAbpQHpJvRsGTgJeQvoz9EXSCuvSXAC8knb/XaW8LLEk5WSJJWVQcoG1LrBW9BCFmEu7z1t5fvQANfgd3Tjc+Z3RA0gtdiPpfKynk7bStXn793jcBhwEzI8eRI1jiSUpJ0ssqU/9FlhtPzenhJU1TdHmsvN50QPUYBFwcvQQGbwKeFr0EFLLPQD8F7AlsD3wFeD+0ImqcwVpG+Ud0YOosSyxJOVkiSX1od8C649ZpoizbfQABWlz2bkhZazW+3n0ABkMAodGDyF1yKXA+0kPs3jv0v/eFecDe9LuFcKqhyWWpJwssaQJ6rfAugu4O8cgQUrYGtYUV0QP0KcSDnI/A3g4eogMDgWmRA8hdcwDwFGkFVnPAD5Je7+uLwa+AOwB3Bs8i9rDEktSTpZY0gT0W2BBu1fWWGDV5/LoAfr04ugBavAQ3Xga4QbA66KHkDrsRuDzpGJ/C1KZdQHpQPimuwJ4EfAJYEHwLGofSyxJOVliSQG+SnpqTxuzCJiW/5JoBVYCFhL/mk80v8x/SRrpzcRf6xxpe2EqtdG6wNtI25EfJP7rwPK5Cng1eX5wJw2RtqBGv6+NMd3IAiyxpNocRvwf+n7ywvyXRCP4A/Gv90RzDzCQ/5I0zhqkv0Sjr3eO7Jn52kjq3RRgZ+Afgf8lbU+u+2vAAuBE4AAsrpSfJZYxJmcssaSavIj4P/D95O35L4lG8H3iX+9+8vT8l6SRTiL+WufIGbkvjKQJm0Z62t87gaOBi6mm1LoZ+C7wVmDNWn5nKtkQaTth9N93xphuxBJLGkOOFSWrks4EaOvqlK8D744eohAfBP4jeog+vAH4QfQQNTgY+HH0EJnsApwbPYSkFZpEOrPu6ctlPWDt5bKiEmouMI+0TfF60vbAq0irfG+vfGrp8YZI50fuED2IpE5YCBwEnBo9iNRltxLfWE80v6/gemjF9iD+9e4nX81/SRppGumJY9HXO0fOynxtJEl6IldiGWNyxpVY0ghynQnR1kdpA2xLegKEqtfm9wmk7S8lWEB3Dq3fjXQOjyRJVZkD7A1cGD2IpE7w6YTSCHIVWG1+4tdU4DnRQxTiPtq9veN5lPPUyp9ED5DR56IHkCR1niWWpJwssaQVcAVW4pMI69PmsnMlYPvoIWpyOjA7eohMdgX2ix5CktR5lliScrLEkp7AAit5QfQABbkgeoA+7RE9QE0W0a0D6z8PTI4eQpLUeZZYknKyxJKWk6vAupV06HNbbRc9QEHaXmDtFj1AjY6NHiCj5wKHRQ8hSSqCJZaknCyxpKUGMn6s/wV2z/jx6jQMrE56LLeqtSpwP+1dDbMAWGPpP0vwe+BF0UNkcj+wBXBP9CCSpCIMAbOAHaIHkdQJC4GDgFOjB5Gi5FqBBe3eRjiJ9DRCVW8ecHX0EH2YRlk3ot+LHiCjNYBPRw8hSSqGK7Ek5eRKLBUvZ4H1h4wfK4LbCOtzcfQAfdoleoAa/Qh4MHqIjN5NWQWkJCmWJZaknCyxVLScBVabny4HPomwTudHD9CnUg5yB5hLt87CmgR8l7SSTpKkOlhiScrJEkvFyllgXQ3Mz/jx6vbi6AEK0vaD3F9EWQXI0cCj0UNktCXwweghJElFscSSlJMlloqUs8BaDFya8ePVbUNgo+ghCnEN7d6WNg14QfQQNboKODt6iMz+EXhW9BCSpKJYYknKyRJLxclZYAFclPnj1W2n6AEKsYT2n4PV1iduTtTXogfIbBrwQ2Cl6EEkSUWxxJKUkyWWipK7wGrzCiyAHaMHKEjbb9z2iR6gZicDt0cPkdnzgc9HDyFJKo4llqScLLFUjNwFVtv/InYFVn3OjR6gTy8E1ooeokaLgSOjh6jAB4ADooeQJBXHEktSTpZYKsJABR9zNvCUCj5uHRYDa9Du85naYgZwHzAlepA+vAH4QfQQNVoNuA0Yih4ksweA7YGbogeRJBVnCJgF7BA9iKROWAgcBJwaPYhUhdwrsAAuq+Bj1mWQ9I2sqvcg7X6vAOwbPUDN5gLfiB6iAquTfmK1SvQgkqTiuBJLUk6uxFKnVVFgtf1wbrcR1ue30QP0aU+q+TPUZP8JPBw9RAWeT/rLfnL0IJKk4lhiScrJEkudZYH1ZLtGD1CQs6IH6NM6pLOwSjKb9PS+LtoH+HT0EJKkIlliScrJEkvq0brAoy3OPNp9LlObrAYsIv417yefyn5Vmm8j0v766GtfVT6Q71JJkjQuQ8AFxP9daIzpRhZgiaUOqWIF1t+AGyr4uHWZgedg1WUucHn0EH3aL3qAALfR3VVYAF8CZkYPIUkqkiuxJOXkSix1SlXn9/y+oo9bl5dED1CQ30QP0KcXAptGDxHgc6SndnbRZFJBt3f0IJKkIlliScrJEkudUVWBdUFFH7cuO0cPUJBzogfI4IDoAQLcBHw/eogKTQV+jiWWJCmGJZaknCyx1AkDFX3c5wBXVvSx6zAXWBNYEj1IAVYD7gUGowfpw28pc9XeZsA1wErRg1ToEeAQ4MToQSRJRRoCZgE7RA8iqRMWAgcBp0YPIk1EVSuwriaVQG21GvD86CEKMRe4KHqIPu1EenhBaW4Gvhk9RMVWAo4D3hw8hySpTK7EkpSTK7HUalUVWMO0fxvhntEDFORX0QP0aTLwyughgnyWdHPdZZOBY4Ejqe5rpiRJI7HEkpSTJZZaq8pvxs6r8GPXYa/oAQpyWvQAGZRaYN0D/Ff0EDV5H+kv+9WiB5EkFccSS1JOllhqparOwAJ4GWnPfls9TDoHa0H0IAWYBNwFPCV6kD4sIm0jvD96kACrAjcC60QPUpNrSYXlNdGDSJKK45lYknLyTCy1SpUrsC6g3YegTwdeHD1EIYZpd9kJMAV4RfQQQeYB/y96iBo9k/QT8NdHDyJJKo4rsSTl5EostUqVBdZc4NIKP34dXhY9QEF+GT1ABm+KHiDQMcAl0UPUaFXg+8BPaffKQUlS+1hiScrJEkutUfWBxL+r+ONXbffoAQoyi3av2AN4CbBp9BBBhoH3Lv1nSV4NXEVaei1JUl0ssSTlZImlVqi6wDqr4o9fte2BtaOHKMT9wMXRQ/RpADgkeohAFwLfiR4iwFOA44HTgWcHzyJJKocllqScLLHUeFUXWOfR7hUZk4BdoocoSBeeRljyNkKATwD3RQ8RZG/gD8A3KOdAe0lSLEssSTlZYqnRqi6wHiB9Q9dme0UPUJBfRw+QwRbAttFDBJoNfDR6iECTgXcANwAfA1aJHUeSVABLLEk5WWKpsaousKD92whfHj1AQS4C7ooeIoM3RA8Q7Bi6UUb2YzXgC8CdwJHA+rHjSJI6zhJLUk6WWGqkOgqsc2r4HFXaAHhO9BCFGAZOih4ig0OAweghgh0OLIgeogFWBd4HXAf8O+nriSRJVbDEkpSTJZYap44C6zzg0Ro+T5X2jh6gICdED5DBuvieuR745+ghGmQG8CHgFuAU4EBgSuRAkqROssSSlJMllop0GanEamvavg2yTSYDfyP+Ne83p+a+MC00SLqBjn4tmpq7gC8B25GeYClJUi5DwAXE/11njOlGFmCJpYL8O/F/6PrJQtJWINXjf4h/zfvNEmDT3BemhbYAHiL+9Wh6biWdlbUbqcSVJKlflljGmJyxxFK4Or9RavPB1pOBS4BrogcpxCLg9dFD9GkAmA/8JnqQYPeSnka6X/QgDTcE7AC8GXg36dy9IdK1mxM3liSpxRYCxwO74xmMkvo3CMwEriAdFyLVrq5tK6uQvpGdWtPnq8I3gXdED1GIKaTtVWtGD9Knu4ENSTeQJRsATsNzwSbqz6SHYZxFOlPwpthxJEktMwTMIv2gRJL6tRA4CI9MUYA6z135DbBHjZ8vt9nAeqQn5al63wXeGD1EBocAP4keogHWJZ2Ft370IB3wAHAp6XpeujQ3kZZ2S5K0IpZYknKyxFLnfYL4fbv9ZsfsV0Uj2Z/41ztHzsl9YVpsV9L20OjXpIs5dhyvgySpTJ6JZYzJGc/EUu0m1fi5zqzxc1Xl5dEDFOQM4MHoITLYBdgqeoiG+C3wkeghOurK6AEkSY03h7Sd/8LoQSR1wlTgZ1hiqUZ1FliXAffV+PmqsH/0AAV5GDgpeogMBoAjoodokCOBU6KH6KDLoweQJLWCJZaknCyxVKs6C6wltH871XOAjaOHKMh3ogfI5E2k89OUlhu/CbghepAOeRQLLElS7yyxJOVkiaXa1FlgAfyy5s9XhQOjByjIWcBfoofIYCrwnughGuR+4BWkG2j172bSwe6SJPXKEktSTpZYqkXdBdava/58VdgveoCCDAM/jh4ik3cBM6KHaJBrSGfKPRI9SAdcGj2AJKmVLLEk5WSJpcrVXWD9hfYfNvwSYM3oIQryvegBMlmTtHVOj/kd8PHoITrgiugBJEmtZYklKSdLLFWq7gIL4NSAz5nTFOCV0UMU5CrgD9FDZPIhYHL0EA3zZeB/oodoOc+/kiT1wxJLUk6WWKpMRIF1WsDnzG1m9ACF+VH0AJlsil/IV+RdwC+ih2ipR0lPeJUkqR+WWJJyssRSJQYCPudkYDbt3oa3CHgqcF/0IIXYALiVmMI1t8uA7UnFgx4zBTgZ2Cd6kJa5DZ+MKknKZwiYBewQPYikTlgIHET7d2GpISIKgSXAmQGfN6cp2CbX6XbSEwm7YFvSE/j0eIuAg/E8p/HyekmScnIllqScXImlrKJWtHThaYQHRg9QmC6dk/QZYlY/Nt0c0gqsa6MHaRG3D0qScrPEkpSTJZayiSqwTqf9W6j2BmZED1GQE4C/Rg+RydbAq6OHaKi/AS8FbogepCUssCRJVbDEkpSTJZayiCqw7gAuCfrcuUwH9o8eoiCLgW9HD5HRp/GJhCP5K7AHcFP0IA33KD6BUJJUHUssSTlZYqlvkYdinxT4uXN5Q/QAhfkm6Qy1LtiKdOaTVux2LLHGMpt0nSRJqoollqScLLHUl8gC6xeBnzuXPYF1oocoyF/oxvlpy3ySbjxZsSq3AbsAf4wepKFcfSVJqoMllqScLLE0YZHfPF9F+8+5GQRmRg9RmKOjB8joWbiKbyx3Ai+mW8VlLm3fhi1Jag9LLEk5WWJpQqJXf5wS/PlzOCR6gMKcAtwSPURGXwRWix6i4R4CDqAbqzZzuiJ6AElSUSyxJOVkiaVxiy6wTg7+/DnsDGwcPURBhoFjoofIaF3gw9FDtMDDwIHAZ6MHaRCfQChJqpsllqScLLHUKoPAfaSnabU5H8h9YTSqpwGLiH/dc2UesF7WK9Rt7yE9lTL6dYvMvcBAvxdSkqQJGgIuIP7vQ2NMN7IASyz1IHoF1mLgV8Ez5PDa6AEKcwdwQvQQGc0A/jl6iBY5CtifVPyV6nLSX/aSJEVwJZaknFyJpZ5EF1gAx0UPkMH2wPOihyjMv9Ktb+DfQnofqTe/AnYAro4eJIjbByVJ0SyxJOVkiaUxNaHAmgXMjR4iA58mV68/AudED5HRJNKB7m4L6901wHbAV6IHCWCBJUlqAkssSTlZYqkVfkT8vtt+cxfpTC/VZz/iX/fceWPWK1SO9wGPEP/61ZVn5blskiRl4ZlYxpic8UwsNdpM4v+Q5Mi+uS+MxrTsLKCu5F5gnaxXqBzPpnvvhxVlAZblkqTmscQyxuSMJZaepAlbCAFOAx6KHiKDN0UPUKAvRw+Q2ZrAf0QP0VJXATsDR5P+0uuq60kPwJAkqUncTigpJ7cTqtGOJ77l7TcPA6vnvjAa1VTgr8S/9jkzDLwk50Uq0D7AbcS/llXkRxmvkyRJubkSyxiTM67E0v9pygosgJOiB8hgGmk7pOqzkO6twhoAvgVMjx6kxU4HtiQdjD8cPEtuf4oeQJKkUbgSS1JOrsRSI61GWsEU3fD2m9/lvjAa0xrAPOJf+9z5dM6LVLC9gRuIfz1z5RV5L48kSZVwJZYxJmdciaXGOY74Pxg58pzcF0Zj+jLxr3sVX6R9L+UxFfg4MJf417XfbJ752kiSVBVLLGNMzlhiqVEOJP4PRY50bUtbG6xLehBA9GufO1fhVsKc1gSOBBYR/9pOJA/SrK3fkiSNxRLLGJMzllhqjKnA/cT/oeg395DOw1K9vkT8a19F/j3nRRIAzwR+RfxrO95cXMXFkCSpYpZYxpicscRSY3yb+D8QOXJI7gujMa1NN7aIPTFLgN3yXSYtNQAcDPyZ+Ne413y3kishSVL1LLGMMTljiVWgJm5F+XH0AJkcGj1Age4BjooeogKTgGNJDzpQPo8CPyGtxjoCuCN2nJ5cFT2AJEkT5NMJJeXk0wnVCIPAbOIb3X6zBNg087XR2NYhnRMU/fpXkW9kvE56sknAy4FLiH+tR8q+lf3uJUmqhyuxjDE540qsgjRxBdZiUpPadpOAd0YPUaDZdHMVFsDbgQOih+iwYeAUYHtgL+D3seOs0J+iB5AkqU+uxJKUkyuxFG4n4pvcHLkbD3OPsDrdeBjAijIP2CrfpdIY9gZmkcqt6Nd+LuncLkmSusCVWMaYnHElVgGauAIL4Dy6sdJgbeC10UMU6AHgv6OHqMgM4AdYjNZlFqnEeibwb8BdgbNcRfrLWZKkLnAllqScXImlUB8jvsXNkctzXxj1ZIi0Ai769a8qX893qTQOk4A9ge8B86n3Nf9mDb8/SZLq5kosY0zOuBJLIdYnnYcV/QcgR3bMfG3Um7cT/9pXmbfku1SagPWAj5NWi9bxeh9Rz29LkqTaWWIZY3LGEkshZhH/5s+R7+e+MOrJIHAN8a9/VZkHPCvb1VI/tiSVWRdR3XlZe9X2u5EkqX6WWMaYnLHEUu3eSPwbP0ceBp6S+dqoNy8n/vWvMtcDa2W7WsphLdLXruOAB8n3Wj+1zt+EJEkBLLGMMTljiaVarUJaZRL9xs+Rf8x8bdS704l//avMRcDK2a6WclpWZv0UmM3EX+N76x5ckqQglljGmJyxxFKtjiX+TZ8jd5KejKD6bQUsIv49UGWOAwZyXTBVZn3gVcDRwC3ku3usAAAgAElEQVT0/vqeXf+okiSFscQyxuSMJVZHTI4eoAdzgTdFD5HBDOAm4IroQQp0D7ABsF30IBV6NumL8znRg2hU84CrgVOBI4ETSOe0zSEV3Guw4iLydOCXNc0oSVK0hcDxwO6kezhJ6scgMJP0vfj1wbOoD21YsTEAXAc8I3qQDK4CnksqGlSv9UlfrFaJHqRCw6TVPSdGD6IJmwJsQSpbtyMd0r8N8CngvwPnkiQpwhDpoU47RA8iqRMWAgeRfpgsVeZjxC87zJWXZb426l2X3kcj5SHgBbkumBphEM84kySVy+2ExpiccTthi7VhBRbAusBfSKsT2u50YN/oIQo1GbiYtKKly+YAu+F2VUmS1A2uxJKUkyuxWmpS9AA9+hvdOf/lZaRDxVW/JcDhpOa9y4aAXwAbRg8iSZKUwRxgb+DC6EEkdcJU4Ge4Eqt12lJgAXw9eoBMJgGfiB6iYOfRnffSaDYCzgKeGj2IJElSBpZYknKyxGqhtmwhhLT962bSN+Zt9wiwOWlbpOq3GunJb+tHD1KDK4GXAPdHDyJJkpSB2wkl5eR2whaZHD3AODxKeoLcHtGDZDCZdDDzadGDFGohcDdwYPQgNVgX2JH0KOpFwbNIkiT1ayHpvmZ3YIPgWSS13yAwk3R+8PXBs2gMbVqBBekvqVtoV/E2kgeBTYB7g+co2anAftFD1ORS0vlr90UPIkmSlIErsSTl5EqsFmjTGVgAtwMnRQ+RyQzg/dFDFO79wMPRQ9RkO+AMYK3oQSRJkjLwTCxJOXkmVgu0rcACODp6gIzeRdoWqRg3Af8SPUSNtiX9RGEoehBJkqQMLLEk5WSJpewGgGtJZ2J1IR/Oe3k0ToPABcS/D+rMhcDqOS6eJElSAwxR3v2cMaa6LMASSxm9h/g3da7cA6ya9/JonLYEHiL+vVBnLgbWznHxJEmSGsASyxiTM5ZYDdTGLYQA3wPmRg+RyVqkrYSKcx3woegharY9qcR6ZvQgkiRJGbidUFJObidUVt8gvpXNlTuB6Xkvj8ZpAPgV8e+FunMfsEuG6ydJktQErsQyxuSMK7GUxVbAMPFv6FwpbQVQE60P3Ev8eyHii/JrMlw/SZKkJrDEMsbkjCWWsvgt8W/mXLkDmJb38mgC3kL8eyEii4DDMlw/SZKkJrDEMsbkjCVWA0yOHqBPD9CdlSOrAneRziVSnCuAbUkHu5dkEvBy0l7vs0hfpCVJktpqIXA8sDuwQfAsktpvEJhJ+n7x+uBZijUQPUCfBoCrSNsJu+BOYHNgfvQghXsK6QvT+tGDBPkV8DpSQSxJktRmQ8AsYIfoQSR1wkLgIODU6EFK1NanEC7zKPDV6CEyWg94T/QQ4m7gQOCR6EGC/B3wR9KTCiVJktrMpxNKysmnE6ovK5MKh+g9sblyD7Ba1iukiTqC+PdDZB4G3tj3VZQkSYrnmVjGmJzxTKwAbT8DC9Lh02sBO0cPksnKpC2Ev40eRFxImedhLTMIHLD0n8semCBJktRGnoklKSfPxArQ9jOwllkHuJXuPMXvQeDpwOzoQcQawGXAJsFzRDuXdC7WbdGDSJIk9cEzsSTl5JlYNWr7GVjLzCbtQ+2KGcAHo4cQAPcDryZ9YSrZzqSfLrwyehBJkqQ+eCaWpJw8E0sTsjUwTPxe2FyZD2yU9QqpH4cS/55oSr5HKlklSZLayjOxjDE545lYGreTiX/j5syP8l4e9emHxL8nmpIrgef0dzklSZJCWWIZY3LGEkvjsgPxb9qcGQZekPUKqR/TgYuJf180JQ8DH6UbD4OQJEllssQyxuSMJZbGZdnT0rqSc/JeHvVpbeAm4t8XTcqVwPb9XFRJkqRAlljGmJyxxFLPXkH8GzZ39s16hdSvZwEPEP++aFIWAV8gHWIoSZLUNpZYxpicscRSzy4j/g2bM9cCg1mvkPo1k249NCBXLiM9UEGSJKltLLGMMTljiZVZV8+uWQAcED1ERmsDtwBXBM+hx1wDLAb2iB6kYdYD3gasQboBXBg7jiRJUs8WAscDuwMbBM8iqf0GSQsfrgCuD55FDTYFuJX4xjVn7gBm5LxIyuJo4t8bTc19wPvpblEuSZK6yZVYxpiccSVWJl39xnIYmA+8PHqQjFYlnS/06+hB9DhnAi8FNowepIGmA/sszR9JJawkSVLTuRJLUk6uxNKYpgB/Jr5tzZlHgC1zXiRlsQ4+mXCsLAG+Daw7wWssSZJUN1diGWNyxpVYfZoUPUCFFgH/GT1EZlOAL0YPoSeZDbwMuCt6kAabBLyF9BOHT5FWFEqSJDXZHGBv4MLoQSR1wlTgZ1hiaQRTSIefRzetufN3Ga+R8nkecD/x7482ZDbpfKypE7rSkiRJ9XElljEmZ1yJpRG9n/g3aO5cC6yU8yIpmxcAc4l/j7Qls4GPYZElSZKazRLLGJMzllhaoanAX4h/g+bOp3NeJGW1H+m8suj3SJtyFfBKur2tWZIktZslljEmZyyxtEIfJP7NmTsPARvnvEjK6gDSOWzR75O25WbSqslp47/kkiRJlbPEMsbkjCWWnmRl4E7i35y58/OcF0nZHU78e6StuRl4FxZZkiSpeSyxjDE5Y4nVo8nRA9RkEWnFUtfeFM8ErgCuix5EK3QRMI/09BqNzxqkrZiHkrYVXknalilJkhRtIXA8sDuwQfAsktpvEJhJ+t7++uBZ1BArAX8mvl3NnRtxlUrTHQ4ME/9eaXPuA74AbDK+Sy9JklQZV2IZY3LGlVhjKGUFFsASYA7pbKIuWZO0QuV/owfRiC4CbgBegYeUT9R0YGfgCGAv0sq260nFoCRJUgRXYknKyZVYepxJpDdDdLOaO4uB7TJeJ1XjNXiwe87cAXwGWGccr4EkSVJursQyxuSMK7H0fw4g/g1ZRa4ApmS8TqrG60mFY/T7pUt5EPgf4MXjeB0kSZJyssQyxuSMJZYAGAAuJf4NWUXel/E6qTquxKou1wH/AGzU86shSZKUhyWWMSZnLLEEwL7EvxmryFz8xr0tDiR9QYp+z3Q1S4AzgTcAq/T4mkiSJPXLEssYkzOWWALSN7fRb8YqcmrOi6RK7QE8QPx7puuZC/yQVBpO7+mVkSRJmjhLLGNMzlhiiW1IqzSi34xV5I0Zr5OqtTnpCYXR75lSsgA4hfRnZKiH10eSJGkiLLGMMTljiSWOIf6NWEXm4FbCNtkQuJL4901peYj06OvXAKuO+SpJkiSNjyWWMSZnii+xBqIHCLY+cD3dPCPnN8BepDe6mm914OfAbsFzlGoRcB5w+tL8Ef/sSJKk/g0Bs4AdogeR1AkLgYMo9OigydEDBJtHOhNn1+hBKrAZcAdwWfQg6skC0jlNTwW2C56lRJOBTYA9gXcC7wW2B9YA/kY6R0uSJGm8FpJWfO8ObBA8i6T2GwRmAleQFuMUpfQVWAAzSGcQPTV6kArMBZ4L3BY9iHo2APwb8OHoQfR/lgAXkn56ehZwEelmVJIkqVeuxJKUU5ErsSywkncA34geoiKnAfvhdqi2eRtwFDA1ehA9ycOkQuucpblg6f8mSZI0GkssSTkVV2JZYCWTgUuA50cPUpHDga9FD6FxexFwArBe9CAa1SOkVVm/W/rPi4C/hk4kSZKayhJLUk5FlVgWWI95EekQ5y5ek4WkvyT/ED2Ixm1t4CfAS6MH0bjMAf4EnEv6unIR6SwtSZIkSyxJORVTYnWxrOnHj4BDooeoyNWkQ6nd6tQ+U0kr6A6NHkQTNgxcRyqyLgYuJxVcHg4vSVKZLLEk5VREiWWB9XgbANcCq0QPUpEvAx+MHkIT9jrgf0hPzlQ33E8qly8Frlr6ny8D5kcOJUmSamGJJSmnzpdYFlhP9hng09FDVORR0oHup0UPognbGfgZsG70IKrMAlKRdQNw43K5AbchSpLUNZZYknLqdIllgfVkM0hbfdaPHqQitwHPI53Ro3bagHQu1k7Rg6h283h8qXUj6Yyt6yKHkiRJfbHEkpRTp0ssPdlrSKuVupof57tUCjJIWi24mPj3k4nNR5EkSW03BFxA/H2FMaYbWQD8PR0zKXqAhvop8MvoISp0MPCe6CHUl8WkAuslwK2xoyjYDdEDSJKkvs0B9gYujB5EUidMJR0906kSyy2EI3s66Slh06IHqchC4EWkp6Gp3YaAb5CKSZXnecCV0UNIkqQs3E4oKadObSd0BdbIbgK+GD1EhaYCxwGrRQ+ivs0BDgHeQjojSeV4lHQOliRJ6gZXYknKqVMrsVyBNbqVSU8D2zh6kAodAxwaPYSy2Rz4IfDC6EFUi78AG0UPIUmSsnMllqScOrESyxVYo5sPHBE9RMXeBrw+eghlcyPp6YT/QDq4T93m6itJkrrJlViScurESiwLrLGdBPwqeoiKfQN4bvQQymYx8K/ANsB5wbOoWh7gLklSd1liScqp9SWWBVZv3kW3zxZahfRGHooeRFldC+wKvA94MHgWVcMCS5KkbrPEkpRTq0ssC6ze3AZ8NHqIim1BOjvJ90S3DANfJa2wOyN4FuXnFkJJkrrPEktSTq0tsSwrevdN4NzoISq2H/DJ6CFUiVtINz5vBe6PHUUZuQJLkqQyWGJJyqmVJZZPIRyf5wKXAlOiB6nQYtKbeFb0IKrMesCXgNfi14A2GyZt//WwfkmSyuHTCSXl1KqnE7oCa3yuBD4XPUTFBoHjgWdHD6LK3El68uSuwOXBs2jibsfySpKk0rgSS1JOrVqJZYE1fp8HrooeomKrAicCq0cPokqdC7yA9JCCe4Nn0fi5fVCSpDJZYknKqTUllgXW+D0CvBd4NHqQim0BHINbzLpuCfAN0ut91NL/rnawwJL0/9u796DdqsK+499zALkooFhtJAyIl6igNYqKCuJ4r7UkNdFOLgadJmIuVWLTlKRNLY7jhKY2E5JOU9Sp0do0ak3Gai5KqqairVGn2IrGGsULUasVERSVw8H+sSFyeQ/nvTzvs57L5zPzG/9whrPOWnuvB3/uvTawvpRYwCwtRYmlwNqed1evHj2IOfih6ldGD4K5uKqpmH149WeDx8Lm+AIhAKw3JRYwS0tRYrE9R1dXND2JtcrZX509ozljefxg9ZHGX39y4PzAAVcPAFgnx1b/o/H/biIiq5FvtaAlliewtu/a6sdb/Veu9lZvqB49eiDM1Vuqh1bPqz4zdigcgFcIAYCansR6Rj7OA8zGwh4jpMDamfdVvzF6EHNwZPUH1UmjB8Jc7a9e23Q+1nnVl8YOh1vYX31q9CAAgIXxleoJeZ0Q2JlvNj199bbRA9nIwjZrS+Tw6kPVqaMHMgcfrc6orh49EIa4S/Xi6h9Xxwwey7r7dHXy6EEAAAvn2Ort1emjBwIsnW82HSVzyeiBHIgnsHbu29ULWv1XCatOaXoi55DRA2GIr1cvq+5T/avqG2OHs9a8PggAbMTB7sB2LHx5VYqIWflc0xMpjx09kDl4QNPf9e2jB8Iw32za2C5uOuDvIU2vmTI/76j+cPQgAICF9O3qTU2vFJ4weCzA4luK8orZOqL6343/YsC88qLZTBsr4OjqF6vPN/66XJe8eFMrAwCsM18nFJGD5brqKbGWHtR0AYy+COeRG6tzZjNtrIgjqp+uPtn463PVs5CftQUAFo4SS0QOFOUVvbDxF+K8cn0ueG7v0Oo51Ycbf42uak7Z9GoAAOtOiSUit81Slle+Qjh7e5veHX3i6IHMyVXVmdXHRg+EhXRW9XPVM6vDBo9lVXyn6YuQ140eCACwNHydELjZ0p55pcDaHSdU/6u62+iBzMmnmw6w/8LgcbC47lo9tzqvOnnwWJbdF6t7jR4EALB0lFjA0pZXNT0txOxd2XQW0Lq4d/XHTSUFbOTq6qLqfk2Pqr6p2j90RMvritEDAACW0teqp1XvHz0QYIilLq/Yfb/d+Hdb55lLq6NmMnOsgwc33SPfaPy1u0z53e1MNgDATZyJJbJ+Wcozr5ivw6sPNf5inWfe2fQ1Otisu1U/U/33xl+/y5CXb2+aAQD+mhJLZH2ivGLT7tv0uO7oi3aeeUvTl+hgq06ozq/+T+Ov40XNT217dgEAvkuJJbL6UV6xZc9r/IU777wyHwlgZ05rOjfr/zX+el6kPGknkwoAcAtKLJHVjfKKbXtd4y/geee3ZjJzrLtjqn9Q/Wm1r/HX9ejcd2fTCQBwK0oskdWL8oodOaL6cOMv5HlHicUsHVWd3VQIX9P463veuaE6bMezCABwa0oskdWJ8oqZeGjTxTT6gp53XjqLyYPbOKKpzLq4+r+Nv87nkU/PYuIAADagxBJZ/iivmKkfafxFPSIXzGDu4ECOrP5e05NZX2n89b5befeM5gsAYCNKLJHljfKKXfHqxl/cI/KPZjF5sAmnNn3N8JLq+sZf+7PKa2Y5SQAAG1BiiSxflFfsmiOr/9n4i3xEfmkG8wdbcffq2U2vGn6+8ffATvKSGc8NAMBGlFgiyxPlFbvuxOrLjb/YR+TXZjB/sB2HVU9sugbf3/J91fCc2U8JAMCGlFgiix/lFXPzd6r9jb/oR+RfV3t2PoWwI4dWpzW9bvjW6urG3xt3lDN3ZxoAADakxBJZ3CivmLtfbfyFPyqexGLR3FxonVe9sbqq8ffJLXPC7v3VAQA2pMQSWbysZXnlCZjx9lZvqf7u6IEM8htNh7t/Z/RAYAOHV6dXZ1SPuinHDxrL9U3n59046M8HANbXsdXbm/69CBjrm9UPNn2waq0osBbDMU3/r8aDRg9kkFdVP9P0OiUsumOqv9X0pNYZ1VnV35zDn/uJ6vvm8OcAAGxEiQXjrW15VQqsRXJS9YHqHqMHMsjbqr/fdEPCMtlbPaB6ZPXw6iHVQ5u+fjhLl1RPnfE/EwBgK5RYMM5al1elwFo0Z1b/tbrT6IEM8mfVD1TXjB4IzMCxTWXWKdWpTU9sPbS6yzb/eRdXPz2boQEAbJsSC+Zv7curUmAtol+oXjF6EAO9t+k8sKtHDwR2wWFNrwHeXGyd2PT01v07+BNb/7Tpow8AAKMpsWB+lFc3UWAtptdW54wexECXVU+vvjh6IDBHh1ff2/S01inVfW7KqdW9qh+p3jBsdAAAt6bEgt2nvGLhHV69p/Gf5hyZTzU9lQJMXz48cvQgAABu49imj1GN/t8OIquY66qnBEvguOovGn/TjMxV1eN2OpEAAMCuUWKJzD7KK5bOfaovNf7mGZlvVc/e6UQCAAC7RoklMrsor1haT632Nf4mGpnrW+8zwQAAYNEpsUR2HuUVS+95jb+RFiEXVXt3NpUAAMAuUWKJbD/Kq4M4ZPQA2JTLqrtWjx49kMFOr06u/qjaP3gsAADArX27elP1hOqEwWOBZeJrg6yUvdV/bnwrvAh5d9Mh9wAAwOLxJJbI5uPJK1bSEdWljb/BFiEfr+63s+kEAAB2iRJL5OBRXrHSjqs+1vgbbRHylerJO5tOAABglyixRA4c5RVr4fjqM42/4RYhN1YXVHt2MqEAAMCuUGKJ3D7KK9bKqdVVjb/xFiVvqI7a0YwCAAC7QYkl8t0or1hLT2n60sfoG3BR8r7qXjuaUQAAYDcosUSUV6y5Z1U3NP5GXJRcWX3/jmYUAADYDUosWed8vTorWHM/Xu1v/A25KPlWdd6OZhQAANgNSixZxyiv4BZ+tvE35aLlP+RcLAAAWDRKLFmnKK9gAy9p/M25aLmsuu9OJhUAAJg5JZasQ5RXcAd+u/E36aLly9UTdjKpAADAzCmxZJWjvIKD2Fu9uvE366JlX/VL1Z7tTy0AADBjSixZxSivYJP2VP+u8TftIuZd1fHbn1oAAGDGlFiySlFewRbtbTrEfPTNu4j5UvW07U8tAAAwY0osWYUor2CbDqve2vibeBGzr/rn1aHbnl0AAGCWlFiyzFFewQ4dUb2j8Tfzoua91b23O7kAAMBMKbFkGaO8ghk5qnpn42/qRc3V1Y9te3YBAIBZUmLJMkV5BTN2p+oPGn9zL3LeXB233QkGAABmRoklyxDlFeySI6o/bvxNvsj5ZPXo7U4wAAAwM0osWeQor2CXHV79YeNv9kXOvuqlTYfgAwAA4yixZBGjvII5OaT6j42/6Rc9H6kets05BgAAZkOJJYsU5RXM2SHV6xt/8y96rq8uuGm+AACAMZRYsghRXsEgh6XE2mwuqU7a3jQDAAAzoMSSkVFewWB7qlc0fjNYhlxXnZ+nsQAAYBQlloyI8goWxJ7qXzZ+U1iWXFo9cFszDQAA7JQSS+YZ5RUsoH9Y3dj4DWIZsq+6sOmrjgAAwHwpsWQeUV7BAnthSqyt5LLq9G3NNAAAsBNKLNnNKK9gCTy36et7ozeMZcn+6t80/YACAADzo8SS3YjyCpbI366ubfzGsUz5q+pZ25lsAABg25RYMstcm/IKls4jqy81fgNZtry1Omkb8w0AAGyPEktmEeUVLLH7V59q/EaybLmmenF16NanHAAA2AYlluwkyitYAcdVlzZ+Q1nGfKJ6xtanHAAA2AYllmwnyitYIcdU72j8xrKs+b3qhC3POgAAsFVKLNlKlFewgg6rXtn4DWZZc231izfNIwAAsHuUWLKZKK9gxZ1b7Wv8ZrOs+Wx1TrVnqxMPAABsmhJL7ijKK1gTT6u+1vhNZ5nz/uqMrU48AACwaUos2SjKK1gzp1dfbPzms8y5oXpV9T1bnHsAAGBzlFhyyyivYE3du/pI4zehZc9Xq1+ojtjS7AMAAJuhxJLvpLyCtXds9bbGb0arkM9WP1kdsqUVAAAADkaJtd5RXgHVdCD5+dX+xm9Mq5DPNB2Wr8gCAIDZUWKtZ5RXwO08I4e7zzKXV8/e0goAAAB3RIm1XlFeAQd0WvW5xm9Uq5R3VI/YyiIAAAAHpMRajyivgIP6nuq9jd+wVik3Vm+sHrCFdQAAADamxFrtKK+ATTu8emXjN65Vy76b5vXEzS8FAACwASXWakZ5BWzLj1bfaPwmtmrZ3/RE1imbXwoAAOA2lFirFeUVsCOPqj7b+M1sFbOvel31oE2vBgAAcEtKrNWI8gqYieOqP2n8prbKuaR69GYXBAAA+GtKrOWO8gqYqUOrC5tefxu9wa1qbqzeUj1yk2sCAABMlFjLGeUVsGvOqq5s/Ea36rm0OnuTawIAACixli3KK2DXHV+9u/Eb3jrkXdWTNrUqAACAEms5orwC5uaQ6mV5pXBeeV/1rJvmHQAAODAl1mLn2upxB1w9gF1yVvVXjd8E1yVfrC6o7rGJtQEAgHWlxFrMKK+Aob63em/jN8N1yrXVb1b328T6AADAOlJiLVaUV8BCOLR6aXVD4zfGdcr+pi8XPvHgSwQAAGtHibUYUV4BC+cR1ccbv0GuYz5RnVfd+aCrBAAA60OJNTbKK2BhHVv9p8ZvlOuam8/JOv4g6wQAAOtCiTUmyitgKTy3+lrjN811zb7qzdVTq70HWSsAAFh1Sqz5RnkFLJWTqnc1fvNc93yyOr+65x0vFwAArDQl1nyivAKW0p7q3KZNbPRGuu7ZX11SPbvp4H0AAFg3SqzdjfIKWHonV+9p/IYqU66sLqxOvKNFAwCAFaTE2p0or4CVcWjTq2zfbvzmKlNu6LtPZR1y4KUDAICVosSabZRXwEp6TPXRxm+ycut8tHpJdd8DLx0AAKwMJdZsorwCVtrNT2N9s/Ebrtw+l9+0Pvc60AICAMAKUGLtLMorYG3cL18qXOTsry5tOoj/LgdYQwAAWGZKrO1FeQWsnUOrf1Jd1/hNWA6cq6qLm36k9my4kgAAsJyUWFuL8gpYa/ev3t34zVgOniuql1UP3GghAQBgCSmxNhflFUDTkz3Pr77a+I1ZNpc/r15Y3WOD9QQAgGWixLrjKK8AbuNuTa+r3dj4TVo2n8urC/JkFgAAy0uJtXGUVwB34PHVxxu/WcvWc3l1YXXm7VYVAAAWmxLr1lFeAWzCMdVvVfsav3HL9vLh6l9UDwkAAJaDEmuK8gpgi+5X/VHjN3DZWT7b9Hro2U1foAQAgEW17iWW8gpgm/ZUP1F9sfGbuew8n6l+s3padUQAALB41rXEUl4BzMBRTYeFf7vxG7vMJvuqS6vzq9MCAIDFsW4llvIKYMYeVr2v8Ru8zD4frV5RPbG6UwAAMNa6lFjKK4Bd9MPVpxq/2cvu5Jrq96vnVycEAABjrHqJpbwCmIMjql9u2nRHb/yyu7ms+tXqMdUhAQDA/KxqiaW8Apiz46qLms5UGv0jILuf65rOzrqwenJeNwQAYPetWomlvAIY6JFNxcboHwOZb75cvan62eqBAQDA7liVEkt5BbAA9lQ/VH2s8T8MMiafr15f/WR1cgAAMDvLXmIprwAWzKHVT1VXNv5HQsbmiurfV8/JgfAAAOzcspZYyiuABXZYdW71hcb/YMhi5OrqkuqCpjO0jgoAALZm2Uos5RXAkrhzdX71tcb/eMhiZV91eXVxdU5eOwQAYHOWpcRSXgEsob/R9PW6bzX+h0QWN5+v3tpUep5ZHR4AANzeopdYyiuAJfeg6vcb/4Miy5GvVn9Svbx6ZnViAAAwWdQSS3kFsEJOrd7Y+B8XWb5cU11aXdT06uGp1d4AAFhHi1ZiKa8AVtTTq/c3/odGljtfqN5WvbQ6uzo+AADWxaKUWMorgDXwtOo9jf/RkdXJ56v/Ur0gAABW3egSS3kFsGYeX/1p48sPWZ38TgAArINRJZbyCmCNPabplbAbG1+AyHLnhQEAsC7mXWIprwCo6uHVm6v9jS9CZDnz2AAAWCfzKrGUVwDczoOr361uaHwhIsuTG6o7BwDAutntEkt5BcAd+r7qNdX1jS9HZPHzkQAAWFe7VWIprwDYtHtXv15d3fiSRBY3rw0AgHU26xJLeQXAthxd/Xz1qcaXJbJ4eVEAAKy7WZVYyisAduyQ6oerSxtfmsji5IwAACN7moYAAAPDSURBVGDnJZbyCoCZe1T1e9W+xhcoMi4OcAcA4Ja2W2IprwDYVSdWv5ZzstY1DnAHAOC2tlpiKa8AmJujm85C+svGlyoyvzjAHQCAjWy2xFJeATDE3uqZ1X9rfLkiux8HuAMAcCAHK7GUVwAshNOqVzX9MI0uWmR34gB3AADuyIFKLOUVAAvn6OoF1YcaX7jI7OIAdwAANuO2JZbyCoCF94jqldU1jS9gZGe5PAAA2JybSyzlFQBL5ejq3OqDjS9iZHt53e1WFQAADuzu1eNHDwIAtuu06uI8lbVsOW+jxQQAAABYZXepnl99oPHljBw8Z268jAAAAKtnz+gBAAvpIdVzqh+rThg8Fm5vf3XX6uujBwIAAAAw2t7qSdVrqq81/qkjmeIAdwAAAIANHFn9aPW2al/jS5x1jgPcAQAAAA7intWLqj9vfJmzjnGAOwAAAMAWPLB6WXVF44uddcnjNrUyAAAAANzKnqZi5ZXVVxtf8qxqbqyO2eSaAAAAAHAAh1RnVhdVVza+9FmlfGIL6wAAAADAJp1aXVD9ReMLoGXPm7Y29QAAAABs1c1l1gcbXwYtY35lyzMOAAAAwLad3PRFvUubznYaXQ4tQ87e1kwDAAAAsGMPqH65+kDjS6JFzknbnWAAAIBltWf0AAA2cP+mJ42eXp1V3WnscBbGV6u7NxVZAAAAACyIQ5u+aHhhzs165w7nEgAAAIA5uE91bvXG6trGl0rzzK/PYP4AAAAAmKMjqyc3PZ31scYXTLud585m2gAAAAAYYU/18OqfVe+rbmh84TTrPGxmswUAALBEHOIOrKqjqsc2nZ91Rst/GPz11dE3/ScAAAAAK+jOffd1ww9W+xv/RNVWctnspwQAAACARXZ0ty60bmx8SXVH+Z1dmQUAAAAAlsY9q2dXF1eXN76wum1evHt/dQAAAACW0YOrn6teX13R+ALrSbv71wUAAFhcDnEH2Jyjq9ObDoU/7ab/vOsc//y7V1fN8c8DAABYGAosgO05pHpg0xcOby61TtmlP+tz1Ym79M8GAAAAYI3ct/qJ6t9WH65uaDavD75tnn8JAAAAANbHXarHVT9fva76SNsrtV4+74EDAAAAsL4OrU6tzqkuqi6tvtEdF1jPGjJSAACABeEMLIDxDq0e0HSO1s35/urON/3396/+cszQAAAAAGBjh1ePqM6t9g4eCwAAAAAAAAAAAAAAAAAAAAAAAAAAAAAAAAAAAAAAAAAAAAAAAAAAAAAAAAAAAAAAAAAAAAAAAAAAAACwQv4/DGqfKN0zz0oAAAAASUVORK5CYII=;rotation=-45;" vertex="1" parent="1">
          <mxGeometry x="364" y="54" width="50" height="50" as="geometry" />
        </mxCell>
        <mxCell id="xBriQurKszWeFzZIVkbg-1" value="" style="verticalLabelPosition=bottom;verticalAlign=top;html=1;shape=mxgraph.basic.arc;startAngle=0.5478428783086985;endAngle=0.9435986841389988;rotation=90;strokeWidth=1;" vertex="1" parent="1">
          <mxGeometry x="330" y="-70" width="100" height="400" as="geometry" />
        </mxCell>
        <mxCell id="xBriQurKszWeFzZIVkbg-2" value="" style="verticalLabelPosition=bottom;verticalAlign=top;html=1;shape=mxgraph.basic.arc;startAngle=0.5478428783086985;endAngle=0.9435986841389988;rotation=90;dashed=1;" vertex="1" parent="1">
          <mxGeometry x="340" y="270" width="100" height="400" as="geometry" />
        </mxCell>
        <mxCell id="xBriQurKszWeFzZIVkbg-3" value="" style="curved=1;endArrow=classic;html=1;" edge="1" parent="1">
          <mxGeometry width="50" height="50" relative="1" as="geometry">
            <mxPoint x="205" y="430" as="sourcePoint" />
            <mxPoint x="575" y="460" as="targetPoint" />
            <Array as="points">
              <mxPoint x="285" y="460" />
              <mxPoint x="375" y="390" />
              <mxPoint x="455" y="440" />
              <mxPoint x="525" y="410" />
            </Array>
          </mxGeometry>
        </mxCell>
        <mxCell id="xBriQurKszWeFzZIVkbg-8" value="" style="endArrow=none;html=1;strokeWidth=2;entryX=0.027;entryY=0.475;entryDx=0;entryDy=0;entryPerimeter=0;" edge="1" parent="1">
          <mxGeometry width="50" height="50" relative="1" as="geometry">
            <mxPoint x="389" y="407" as="sourcePoint" />
            <mxPoint x="389" y="79.70000000000005" as="targetPoint" />
          </mxGeometry>
        </mxCell>
        <mxCell id="xBriQurKszWeFzZIVkbg-9" value="卫星轨道" style="text;html=1;strokeColor=none;fillColor=none;align=center;verticalAlign=middle;whiteSpace=wrap;rounded=0;dashed=1;" vertex="1" parent="1">
          <mxGeometry x="527" y="84" width="80" height="20" as="geometry" />
        </mxCell>
        <mxCell id="xBriQurKszWeFzZIVkbg-12" value="仪器误差改正" style="text;html=1;strokeColor=none;fillColor=none;align=center;verticalAlign=middle;whiteSpace=wrap;rounded=0;dashed=1;" vertex="1" parent="1">
          <mxGeometry x="284" y="90" width="80" height="20" as="geometry" />
        </mxCell>
        <mxCell id="xBriQurKszWeFzZIVkbg-13" value="大气层改正" style="text;html=1;strokeColor=none;fillColor=none;align=center;verticalAlign=middle;whiteSpace=wrap;rounded=0;dashed=1;" vertex="1" parent="1">
          <mxGeometry x="310" y="200" width="80" height="20" as="geometry" />
        </mxCell>
        <mxCell id="xBriQurKszWeFzZIVkbg-14" value="海况偏差改正" style="text;html=1;strokeColor=none;fillColor=none;align=center;verticalAlign=middle;whiteSpace=wrap;rounded=0;dashed=1;" vertex="1" parent="1">
          <mxGeometry x="260" y="400" width="80" height="20" as="geometry" />
        </mxCell>
        <mxCell id="xBriQurKszWeFzZIVkbg-16" value="海面" style="text;html=1;strokeColor=none;fillColor=none;align=center;verticalAlign=middle;whiteSpace=wrap;rounded=0;dashed=1;" vertex="1" parent="1">
          <mxGeometry x="510" y="402" width="80" height="20" as="geometry" />
        </mxCell>
        <mxCell id="xBriQurKszWeFzZIVkbg-17" value="参考椭球" style="text;html=1;strokeColor=none;fillColor=none;align=center;verticalAlign=middle;whiteSpace=wrap;rounded=0;dashed=1;" vertex="1" parent="1">
          <mxGeometry x="470" y="442" width="80" height="20" as="geometry" />
        </mxCell>
        <mxCell id="xBriQurKszWeFzZIVkbg-18" value="" style="endArrow=none;html=1;strokeWidth=1;exitX=0.007;exitY=0.477;exitDx=0;exitDy=0;exitPerimeter=0;" edge="1" parent="1" source="xBriQurKszWeFzZIVkbg-2">
          <mxGeometry width="50" height="50" relative="1" as="geometry">
            <mxPoint x="400" y="180" as="sourcePoint" />
            <mxPoint x="400" y="80" as="targetPoint" />
            <Array as="points">
              <mxPoint x="400" y="130" />
            </Array>
          </mxGeometry>
        </mxCell>
        <mxCell id="xBriQurKszWeFzZIVkbg-19" value="R" style="text;html=1;strokeColor=none;fillColor=none;align=center;verticalAlign=middle;whiteSpace=wrap;rounded=0;dashed=1;" vertex="1" parent="1">
          <mxGeometry x="330" y="260" width="60" height="20" as="geometry" />
        </mxCell>
        <mxCell id="xBriQurKszWeFzZIVkbg-20" value="H" style="text;html=1;strokeColor=none;fillColor=none;align=center;verticalAlign=middle;whiteSpace=wrap;rounded=0;dashed=1;" vertex="1" parent="1">
          <mxGeometry x="400" y="280" width="40" height="20" as="geometry" />
        </mxCell>
        <mxCell id="xBriQurKszWeFzZIVkbg-21" value="" style="endArrow=none;html=1;strokeWidth=1;dashed=1;" edge="1" parent="1">
          <mxGeometry width="50" height="50" relative="1" as="geometry">
            <mxPoint x="388.5" y="420" as="sourcePoint" />
            <mxPoint x="388.5" y="400" as="targetPoint" />
          </mxGeometry>
        </mxCell>
        <mxCell id="xBriQurKszWeFzZIVkbg-24" value="" style="endArrow=none;html=1;strokeWidth=1;" edge="1" parent="1">
          <mxGeometry width="50" height="50" relative="1" as="geometry">
            <mxPoint x="348" y="388" as="sourcePoint" />
            <mxPoint x="383" y="411" as="targetPoint" />
            <Array as="points">
              <mxPoint x="358" y="408" />
            </Array>
          </mxGeometry>
        </mxCell>
        <mxCell id="xBriQurKszWeFzZIVkbg-25" value="h=H-R" style="text;html=1;strokeColor=none;fillColor=none;align=center;verticalAlign=middle;whiteSpace=wrap;rounded=0;dashed=1;" vertex="1" parent="1">
          <mxGeometry x="325" y="369" width="40" height="20" as="geometry" />
        </mxCell>
      </root>
    </mxGraphModel>
  </diagram>
</mxfile>
